<svg width="80" height="85" viewBox="0 0 80 85" fill="none" xmlns="http://www.w3.org/2000/svg">
<path d="M42.3683 84.3746C41.8766 84.1773 40.8709 83.4668 40.1334 82.7959C38.4566 81.2703 38.3242 77.7267 39.8723 75.8147C42.0524 73.1224 49.3089 73.2766 51.7084 76.0663C52.8554 77.3997 53.5128 77.612 56.4933 77.6112C63.0526 77.6094 66.206 74.4637 66.206 67.9225C66.206 64.8097 66.0631 64.4174 64.7473 63.9171C63.945 63.6121 62.8053 62.6249 62.2146 61.7233C61.2674 60.2778 61.1405 58.6306 61.1405 47.7835C61.1405 38.0662 61.3172 35.2701 61.982 34.4691C63.8554 32.2118 62.423 25.3611 59.0342 20.3709C56.1388 16.1073 53.8117 14.1378 48.9235 11.8138C45.5294 10.2001 44.4229 9.97314 39.9844 9.98068C35.424 9.98845 34.4725 10.2009 30.4431 12.1107C23.5703 15.3683 18.5646 21.8508 17.4542 28.9319C17.0238 31.6763 17.105 32.6491 17.8745 33.9657C18.6655 35.3193 18.8283 37.7005 18.8283 47.92C18.8283 59.4862 18.7519 60.3445 17.5838 61.909C14.9035 65.499 8.39463 64.8317 6.4069 60.7632C5.80278 59.5267 4.53347 58.1142 3.58621 57.6244C0.853604 56.2113 0.0556112 53.9656 0.0581113 47.6953C0.0605777 41.5691 1.09031 38.8689 3.91471 37.582C5.96012 36.65 7.7108 33.0006 8.38351 28.2666C9.45952 20.6946 12.1712 15.3554 17.7427 9.83855C26.1485 1.51513 38.6848 -1.71229 48.832 1.83472C55.0723 4.01605 58.2843 5.93545 62.2261 9.83855C67.8049 15.3627 70.5089 20.6929 71.5892 28.2949C72.2775 33.1388 73.8366 36.2501 76.3378 37.7711C78.9254 39.3448 79.9129 42.1188 79.9129 47.8147C79.9129 53.5504 78.9197 56.3124 76.3862 57.6225C75.3546 58.156 74.1823 59.4585 73.7043 60.6023C73.2374 61.7198 72.0584 63.0463 71.0845 63.55C69.3796 64.4316 69.3056 64.6421 69.0987 69.1983C68.9071 73.42 68.6864 74.1777 67.0556 76.2184C64.4491 79.4798 61.9243 80.5898 57.1094 80.5909C53.3396 80.5918 52.9696 80.7136 51.3991 82.4713C49.9702 84.0706 49.2383 84.3793 46.4909 84.5421C44.715 84.6474 42.8599 84.5719 42.3683 84.3746ZM48.9374 80.5782C49.8949 79.6206 50.0132 79.1302 49.5123 78.1944C49.0314 77.2958 48.2617 77.0161 46.2697 77.0161C42.7538 77.0161 41.7723 77.4788 41.7723 79.1361C41.7723 81.8225 46.701 82.8145 48.9374 80.5782ZM15.7206 58.5418C16.0165 57.3946 16.1663 51.8081 16.0534 46.1275C15.8669 36.7248 15.7449 35.7232 14.6917 34.9534C13.1686 33.8403 11.0961 33.8799 9.93155 35.0444C9.14474 35.8312 8.99509 37.8236 8.99509 47.5105C8.99509 53.8519 9.16303 59.4777 9.36818 60.0125C9.65333 60.7551 10.3839 60.9425 12.4619 60.8061C15.0194 60.6383 15.215 60.5024 15.7206 58.5418ZM70.612 59.9829C70.811 59.4644 70.9737 53.8519 70.9737 47.5106C70.9737 37.8236 70.8241 35.8312 70.0373 35.0444C68.8728 33.8799 66.8002 33.8402 65.2771 34.9533C64.2011 35.7397 64.1203 36.6028 64.1203 47.3192C64.1203 53.6555 64.3129 59.309 64.5486 59.8826C65.1284 61.2946 70.0773 61.3765 70.612 59.9829ZM5.39971 47.6657L5.37945 40.3654L4.20738 41.7723C2.6784 43.6076 2.51441 51.5734 3.96312 53.6416C4.47339 54.3701 5.00975 54.9661 5.15503 54.9661C5.30031 54.9661 5.41052 51.6809 5.39971 47.6657ZM76.9332 47.8813C76.9332 43.3411 75.8201 40.1759 74.5086 40.9865C73.8564 41.3896 73.7484 53.9664 74.3918 54.6096C74.6327 54.8506 75.3031 54.4634 75.8816 53.749C76.6822 52.7604 76.9332 51.3593 76.9332 47.8813ZM14.6002 28.1507C16.1643 16.3595 27.5853 6.72132 40.0178 6.7008C52.1686 6.68086 63.8295 16.5472 65.3687 28.1507C65.7365 30.9228 65.8792 31.1282 67.4373 31.1282C69.0299 31.1282 69.0957 31.0199 68.7966 28.8934C68.2254 24.833 66.6453 20.7644 64.1122 16.832C55.8647 4.02853 39.9683 -0.021285 26.0047 7.12361C18.8096 10.8052 12.3917 20.2249 11.1723 28.8934C10.8733 31.0199 10.9389 31.1282 12.5316 31.1282C14.0897 31.1282 14.2324 30.9228 14.6002 28.1507Z" fill="white"/>
</svg>
