<svg width="94" height="85" viewBox="0 0 94 85" fill="none" xmlns="http://www.w3.org/2000/svg">
<path d="M27.2138 84.2271C27.2138 84.0276 26.9235 83.8644 26.5686 83.8644C26.2138 83.8644 25.6882 83.5381 25.4007 83.1392C25.1133 82.7404 24.6576 82.414 24.3883 82.414C23.7571 82.414 22.8625 81.5194 22.8625 80.8882C22.8625 80.6188 22.5361 80.1632 22.1373 79.8758C21.7114 79.5688 21.412 78.9371 21.412 78.3453C21.412 77.791 21.2489 77.3375 21.0494 77.3375C20.85 77.3375 20.6868 76.848 20.6868 76.2497C20.6868 75.4036 20.5257 75.1618 19.9616 75.1618C19.3331 75.1618 19.2364 75.4036 19.2364 76.9749V78.7879H15.2477H11.259V77.7001V76.6123H14.1599C15.7554 76.6123 17.0607 76.519 17.0607 76.4051C17.0607 75.6393 15.8075 75.1618 13.7973 75.1618C10.5367 75.1618 10.5338 75.1559 10.5338 68.4795C10.5338 63.0749 10.5027 62.8331 9.80857 62.8331C9.35509 62.8331 9.08335 62.5914 9.08335 62.188C9.08335 61.8331 9.4097 61.3076 9.80857 61.0201C10.3898 60.6012 10.5338 60.0814 10.5338 58.4018V56.3062H5.97528C2.40675 56.3062 1.29865 56.1881 0.872862 55.7623C0.389384 55.2788 0.389384 55.1579 0.872862 54.6744C1.29865 54.2487 2.40675 54.1305 5.97528 54.1305H10.5338V47.241V40.3514H7.78833C5.83139 40.3514 4.88664 40.1952 4.49895 39.8075C4.01547 39.324 4.01547 39.2031 4.49895 38.7197C4.88664 38.332 5.83139 38.1758 7.78833 38.1758C10.0229 38.1758 10.5338 38.0715 10.5338 37.6154C10.5338 37.3071 10.9343 36.6545 11.4238 36.1649L12.3139 35.2749H30.2795H48.2451V33.8245C48.2451 33.0267 48.0819 32.374 47.8825 32.374C47.6627 32.374 47.5199 30.8027 47.5199 28.3853C47.5199 25.9679 47.6627 24.3966 47.8825 24.3966C48.0819 24.3966 48.2451 23.7439 48.2451 22.9462C48.2451 22.1485 48.4083 21.4958 48.6077 21.4958C48.8071 21.4958 48.9703 21.0062 48.9703 20.4079C48.9703 19.8096 49.1335 19.3201 49.3329 19.3201C49.5323 19.3201 49.6955 18.9938 49.6955 18.5949C49.6955 18.196 49.8587 17.8697 50.0581 17.8697C50.2575 17.8697 50.4207 17.5794 50.4207 17.2245C50.4207 16.8697 50.7471 16.3441 51.1459 16.0566C51.5448 15.7691 51.8712 15.3226 51.8712 15.0642C51.8712 14.4045 57.1797 9.16708 57.8484 9.16708C58.1507 9.16708 58.3981 9.00389 58.3981 8.80447C58.3981 8.60504 58.6545 8.44186 58.9679 8.44186C60.1907 8.44186 60.5738 7.49042 60.5738 4.45316C60.5738 2.37766 60.7277 1.3466 61.0918 0.982482C61.8555 0.21873 78.8729 0.21873 79.6366 0.982482C80.0007 1.3466 80.1546 2.37766 80.1546 4.45316C80.1546 7.43323 80.5405 8.44186 81.6804 8.44186C81.9498 8.44186 82.4054 8.76821 82.6929 9.16708C82.9804 9.56595 83.4286 9.89229 83.689 9.89229C84.5622 9.89229 87.4068 13.0756 87.4068 14.0527C87.4068 15.6498 85.8301 15.2598 83.7807 13.1558C82.8094 12.1586 81.7954 11.3427 81.5274 11.3427C81.2593 11.3427 80.8047 11.0164 80.5172 10.6175C80.2298 10.2186 79.7042 9.89229 79.3494 9.89229C78.9945 9.89229 78.7042 9.72913 78.7042 9.52969C78.7042 9.33026 78.2147 9.16708 77.6164 9.16708C77.0181 9.16708 76.5285 9.00389 76.5285 8.80447C76.5285 8.60504 75.8758 8.44186 75.0781 8.44186C74.2804 8.44186 73.6277 8.27869 73.6277 8.07925C73.6277 7.86168 72.1772 7.71664 70.0016 7.71664C67.8259 7.71664 66.3755 7.86169 66.3755 8.07925C66.3755 8.27868 65.7228 8.44186 64.9251 8.44186C64.1273 8.44186 63.4746 8.60502 63.4746 8.80447C63.4746 9.00389 63.1483 9.16708 62.7494 9.16708C62.3505 9.16708 62.0242 9.33024 62.0242 9.52969C62.0242 9.72911 61.6979 9.89229 61.299 9.89229C60.9001 9.89229 60.5738 10.0555 60.5738 10.2549C60.5738 10.4543 60.2834 10.6175 59.9286 10.6175C59.5738 10.6175 59.0482 10.9439 58.7607 11.3427C58.4732 11.7416 58.025 12.0679 57.7646 12.0679C57.1486 12.0679 54.0468 15.1697 54.0468 15.7857C54.0468 16.0461 53.7205 16.4944 53.3216 16.7819C52.9227 17.0693 52.5964 17.5949 52.5964 17.9497C52.5964 18.3046 52.4332 18.5949 52.2338 18.5949C52.0343 18.5949 51.8712 18.9212 51.8712 19.3201C51.8712 19.719 51.708 20.0453 51.5086 20.0453C51.3091 20.0453 51.1459 20.5349 51.1459 21.1332C51.1459 21.7315 50.9828 22.221 50.7833 22.221C50.5839 22.221 50.4207 22.8737 50.4207 23.6714C50.4207 24.4692 50.2576 25.1219 50.0581 25.1219C49.8432 25.1219 49.6955 26.4514 49.6955 28.3853C49.6955 30.3192 49.8432 31.6488 50.0581 31.6488C50.2575 31.6488 50.4207 32.2316 50.4207 32.9438C50.4207 35.2864 50.3663 35.2749 61.4544 35.2749C67.8777 35.2749 71.452 35.4045 71.452 35.6375C71.452 35.8369 71.7003 36.0001 72.0038 36.0001C72.6194 36.0001 76.5285 39.7584 76.5285 40.3502C76.5285 40.9727 81.3631 45.61 81.5203 45.1383C81.6002 44.8987 81.9002 44.7027 82.1871 44.7027C82.8373 44.7027 86.6816 40.901 86.6816 40.258C86.6816 39.9986 87.0079 39.5511 87.4068 39.2636C87.8057 38.9761 88.132 38.4506 88.132 38.0957C88.132 37.7409 88.2952 37.4505 88.4946 37.4505C88.6941 37.4505 88.8572 37.1242 88.8572 36.7253C88.8572 36.3265 89.0204 36.0001 89.2198 36.0001C89.4193 36.0001 89.5825 35.5106 89.5825 34.9123C89.5825 34.314 89.7456 33.8245 89.9451 33.8245C90.1523 33.8245 90.3077 32.7366 90.3077 31.2862C90.3077 29.8358 90.4631 28.7479 90.6703 28.7479C90.8697 28.7479 91.0329 28.4216 91.0329 28.0227C91.0329 27.6239 90.8697 27.2975 90.6703 27.2975C90.4688 27.2975 90.3077 26.3305 90.3077 25.1219C90.3077 23.9132 90.1465 22.9462 89.9451 22.9462C89.7456 22.9462 89.5825 22.4567 89.5825 21.8584C89.5825 21.2601 89.4193 20.7705 89.2198 20.7705C89.0204 20.7705 88.8572 20.2946 88.8572 19.7129C88.8572 19.1313 88.6547 18.5878 88.4072 18.5053C87.8772 18.3287 88.8998 17.1445 89.5825 17.1445C90.2977 17.1445 91.0329 18.1422 91.0329 19.1129C91.0329 19.6257 91.196 20.0453 91.3955 20.0453C91.5949 20.0453 91.7581 20.5349 91.7581 21.1332C91.7581 21.7315 91.9213 22.221 92.1207 22.221C92.3201 22.221 92.4833 23.0369 92.4833 24.034C92.4833 25.0312 92.6465 25.8471 92.8459 25.8471C93.0474 25.8471 93.2085 26.814 93.2085 28.0227C93.2085 29.2314 93.0474 30.1984 92.8459 30.1984C92.6445 30.1984 92.4833 31.1653 92.4833 32.374C92.4833 33.5827 92.3221 34.5497 92.1207 34.5497C91.9213 34.5497 91.7581 35.0392 91.7581 35.6375C91.7581 36.2358 91.5949 36.7253 91.3955 36.7253C91.1961 36.7253 91.0329 37.0517 91.0329 37.4505C91.0329 37.8494 90.8697 38.1758 90.6703 38.1758C90.4709 38.1758 90.3077 38.4661 90.3077 38.8209C90.3077 39.1758 89.9813 39.7013 89.5825 39.9888C89.1836 40.2763 88.8572 40.7272 88.8572 40.9909C88.8572 41.2545 87.5157 42.7974 85.8761 44.4195C84.2268 46.0512 83.0928 47.4347 83.3378 47.5164C83.5814 47.5976 83.7807 47.9004 83.7807 48.1893C83.7807 48.4782 85.5756 50.499 87.7694 52.6801C89.9632 54.8612 91.7581 56.8956 91.7581 57.2011C91.7581 57.5067 91.9213 57.7566 92.1207 57.7566C92.3201 57.7566 92.4833 58.083 92.4833 58.4818C92.4833 58.8807 92.6465 59.2071 92.8459 59.2071C93.0746 59.2071 93.2085 61.6889 93.2085 65.9274V72.6478L91.9515 73.9048C90.8455 75.0108 90.472 75.1618 88.8434 75.1618C86.6328 75.1618 85.9564 75.708 85.9564 77.4929C85.9564 78.2052 85.7932 78.7879 85.5938 78.7879C85.3943 78.7879 85.2311 79.0362 85.2311 79.3397C85.2311 80.289 81.3692 83.8644 80.3438 83.8644C79.8409 83.8644 79.4294 84.0276 79.4294 84.2271C79.4294 84.4419 78.0998 84.5897 76.1659 84.5897C74.232 84.5897 72.9025 84.4419 72.9025 84.2271C72.9025 84.0276 72.5761 83.8644 72.1772 83.8644C71.7784 83.8644 71.452 83.7013 71.452 83.5018C71.452 83.3024 71.203 83.1392 70.8986 83.1392C69.9636 83.1392 67.1007 80.003 67.1007 78.9788C67.1007 78.4749 66.9376 78.0627 66.7381 78.0627C66.5387 78.0627 66.3755 77.6431 66.3755 77.1303C66.3755 75.1648 66.356 75.1618 53.1662 75.1618H40.9929V76.6123C40.9929 77.41 40.8297 78.0627 40.6303 78.0627C40.4309 78.0627 40.2677 78.3891 40.2677 78.7879C40.2677 79.352 40.026 79.5131 39.1799 79.5131C38.2129 79.5131 38.092 79.3923 38.092 78.4253C38.092 77.827 38.2552 77.3375 38.4546 77.3375C38.6619 77.3375 38.8173 76.2497 38.8173 74.7992C38.8173 73.3488 38.6619 72.261 38.4546 72.261C38.2552 72.261 38.092 71.9346 38.092 71.5358C38.092 71.1369 37.9289 70.8105 37.7294 70.8105C37.53 70.8105 37.3668 70.5584 37.3668 70.2501C37.3668 69.5248 35.7517 67.9097 35.0264 67.9097C34.7181 67.9097 34.466 67.7465 34.466 67.5471C34.466 67.3476 33.9764 67.1845 33.3781 67.1845C32.7798 67.1845 32.2903 67.0213 32.2903 66.8218C32.2903 66.6224 31.6376 66.4592 30.8399 66.4592C30.0421 66.4592 29.3894 66.6224 29.3894 66.8218C29.3894 67.0213 28.978 67.1845 28.475 67.1845C27.2102 67.1845 23.5877 70.807 23.5877 72.0718C23.5877 72.5747 23.4245 72.9862 23.2251 72.9862C23.0257 72.9862 22.8625 73.8021 22.8625 74.7992C22.8625 75.7964 23.0257 76.6123 23.2251 76.6123C23.4245 76.6123 23.5877 76.9386 23.5877 77.3375C23.5877 77.7364 23.7509 78.0627 23.9503 78.0627C24.1497 78.0627 24.3129 78.3129 24.3129 78.6187C24.3129 79.3404 26.6613 81.6888 27.383 81.6888C27.6888 81.6888 27.939 81.852 27.939 82.0514C27.939 82.2629 29.1477 82.414 30.8399 82.414C32.532 82.414 33.7407 82.2629 33.7407 82.0514C33.7407 81.852 34.3934 81.6888 35.1912 81.6888C36.268 81.6888 36.6416 81.8356 36.6416 82.2586C36.6416 82.9915 35.7686 83.8644 35.0358 83.8644C34.7224 83.8644 34.466 84.0276 34.466 84.2271C34.466 84.4446 33.0155 84.5897 30.8399 84.5897C28.6642 84.5897 27.2138 84.4446 27.2138 84.2271ZM78.7042 82.0514C78.7042 81.852 79.0305 81.6888 79.4294 81.6888C79.8283 81.6888 80.1546 81.5256 80.1546 81.3262C80.1546 81.1268 80.4068 80.9636 80.715 80.9636C81.4404 80.9636 83.0555 79.3485 83.0555 78.6231C83.0555 78.3149 83.2187 78.0627 83.4181 78.0627C83.633 78.0627 83.7807 76.7331 83.7807 74.7992C83.7807 72.8653 83.633 71.5358 83.4181 71.5358C83.2187 71.5358 83.0555 71.2856 83.0555 70.9798C83.0555 70.674 82.4898 69.8581 81.7984 69.1667C81.1071 68.4753 80.2912 67.9097 79.9854 67.9097C79.6796 67.9097 79.4294 67.7465 79.4294 67.5471C79.4294 67.3476 78.9399 67.1845 78.3416 67.1845C77.7433 67.1845 77.2538 67.0213 77.2538 66.8218C77.2538 66.6224 76.7642 66.4592 76.1659 66.4592C75.5676 66.4592 75.0781 66.6224 75.0781 66.8218C75.0781 67.0213 74.5886 67.1845 73.9903 67.1845C73.392 67.1845 72.9025 67.3476 72.9025 67.5471C72.9025 67.7465 72.6523 67.9097 72.3465 67.9097C72.0407 67.9097 71.2248 68.4753 70.5334 69.1667C69.842 69.8581 69.2764 70.674 69.2764 70.9798C69.2764 71.2856 69.1132 71.5358 68.9138 71.5358C68.7022 71.5358 68.5512 72.7444 68.5512 74.4366C68.5512 76.1288 68.7022 77.3375 68.9138 77.3375C69.1132 77.3375 69.2764 77.6638 69.2764 78.0627C69.2764 78.4616 69.4396 78.7879 69.639 78.7879C69.8384 78.7879 70.0016 79.0443 70.0016 79.3577C70.0016 79.6711 70.2347 80.1607 70.5196 80.4456C70.8045 80.7305 71.294 80.9636 71.6074 80.9636C71.9208 80.9636 72.1772 81.1267 72.1772 81.3262C72.1772 81.5256 72.5036 81.6888 72.9025 81.6888C73.3013 81.6888 73.6277 81.852 73.6277 82.0514C73.6277 82.2586 74.7155 82.414 76.1659 82.414C77.6164 82.414 78.7042 82.2586 78.7042 82.0514ZM73.3557 77.5042C72.3813 76.4839 72.1772 75.9859 72.1772 74.6282C72.1772 73.7251 72.3404 72.9862 72.5398 72.9862C72.7393 72.9862 72.9025 72.7298 72.9025 72.4164C72.9025 71.2907 73.8754 70.8105 76.1565 70.8105C79.1348 70.8105 80.1546 71.7344 80.1546 74.4322C80.1546 76.0501 80.0019 76.4266 78.8976 77.5309C77.8407 78.5877 77.3932 78.784 76.0874 78.763C74.8104 78.7424 74.3246 78.5186 73.3557 77.5042ZM77.461 76.0943C78.5806 74.9746 77.7521 72.9862 76.1659 72.9862C74.6167 72.9862 73.7739 74.8975 74.8062 76.0699C75.3956 76.7394 76.8029 76.7523 77.461 76.0943ZM20.894 72.4682C21.1789 72.1833 21.412 71.5306 21.412 71.0177C21.412 70.5049 21.5752 70.0853 21.7747 70.0853C21.9741 70.0853 22.1373 69.759 22.1373 69.3601C22.1373 68.6767 21.8955 68.6349 17.9414 68.6349C13.0667 68.6349 12.7094 68.8188 12.7094 71.3286V72.9862H16.5427C19.3814 72.9862 20.5104 72.8518 20.894 72.4682ZM52.5964 71.3286C52.5964 68.7192 52.3871 68.6349 45.914 68.6349H40.2677V70.0853C40.2677 70.8831 40.4309 71.5358 40.6303 71.5358C40.8297 71.5358 40.9929 71.8621 40.9929 72.261C40.9929 72.956 41.2346 72.9862 46.7946 72.9862H52.5964V71.3286ZM66.3755 71.8984C66.3755 71.3001 66.5387 70.8105 66.7381 70.8105C66.9375 70.8105 67.1007 70.321 67.1007 69.7227V68.6349H60.9364H54.772V70.8105V72.9862H60.5738H66.3755V71.8984ZM90.3077 72.261C90.3077 71.8621 90.4709 71.5358 90.6703 71.5358C91.2206 71.5358 91.1036 69.7416 90.5149 69.1529C90.171 68.8091 89.1957 68.6349 87.614 68.6349H85.2312V69.7227C85.2312 70.321 85.3943 70.8105 85.5938 70.8105C85.7932 70.8105 85.9564 71.3001 85.9564 71.8984V72.9862H88.132C90.0659 72.9862 90.3077 72.9056 90.3077 72.261ZM25.0381 66.0966C25.0381 65.8972 25.3645 65.734 25.7633 65.734C26.1622 65.734 26.4886 65.5708 26.4886 65.3714C26.4886 65.172 26.9781 65.0088 27.5764 65.0088C28.1747 65.0088 28.6642 64.8456 28.6642 64.6462C28.6642 64.4447 29.6312 64.2836 30.8399 64.2836C32.0486 64.2836 33.0155 64.4448 33.0155 64.6462C33.0155 64.8456 33.505 65.0088 34.1033 65.0088C34.7016 65.0088 35.1912 65.172 35.1912 65.3714C35.1912 65.5708 35.5175 65.734 35.9164 65.734C36.3153 65.734 36.6416 65.8972 36.6416 66.0966C36.6416 66.3274 39.5425 66.4592 44.619 66.4592H52.5964V51.9549V37.4505H33.1709C16.819 37.4505 13.6635 37.5325 13.2275 37.9686C12.8105 38.3855 12.7094 40.013 12.7094 46.3086V54.1305H16.3355H19.9616V55.2184V56.3062H16.3355H12.7094V58.4818V60.6575H16.3355H19.9616V61.7453V62.8331H16.3355H12.7094V64.6462V66.4592H18.8738C22.7416 66.4592 25.0381 66.3241 25.0381 66.0966ZM29.3894 60.2949C29.3894 60.0955 29.1392 59.9323 28.8334 59.9323C28.2033 59.9323 25.7633 57.6241 25.7633 57.028C25.7633 56.8134 27.0758 55.3394 28.6799 53.7524L31.5964 50.8671L28.6799 47.9817C27.0758 46.3948 25.7633 44.9208 25.7633 44.7061C25.7633 44.11 28.2033 41.8018 28.8334 41.8018C29.1392 41.8018 29.3894 41.6387 29.3894 41.4392C29.3894 41.2398 30.0421 41.0766 30.8399 41.0766C31.6376 41.0766 32.2903 41.2398 32.2903 41.4392C32.2903 41.6387 32.537 41.8018 32.8384 41.8018C33.1399 41.8018 35.098 43.5133 37.1897 45.605C40.8949 49.3102 40.9929 49.4503 40.9929 51.0442C40.9929 51.9439 40.8297 52.6801 40.6303 52.6801C40.4309 52.6801 40.2677 52.9365 40.2677 53.2499C40.2677 53.9098 39.4182 54.8558 38.8257 54.8558C38.6023 54.8558 37.2932 55.998 35.9164 57.394C34.5396 58.7901 33.1605 59.9323 32.8517 59.9323C32.5429 59.9323 32.2903 60.0954 32.2903 60.2949C32.2903 60.4943 31.6376 60.6575 30.8399 60.6575C30.0421 60.6575 29.3894 60.4943 29.3894 60.2949ZM31.5651 58.1192C31.5651 57.9198 31.8122 57.7566 32.1142 57.7566C32.9506 57.7566 38.8173 51.7267 38.8173 50.8671C38.8173 50.0074 32.9506 43.9775 32.1142 43.9775C31.8122 43.9775 31.5651 43.8143 31.5651 43.6149C31.5651 43.4155 31.3087 43.2523 30.9953 43.2523C30.3354 43.2523 29.3894 44.1017 29.3894 44.6943C29.3894 44.9176 30.5317 46.2268 31.9277 47.6036C33.4672 49.1218 34.466 50.406 34.466 50.8671C34.466 51.3282 33.4672 52.6123 31.9277 54.1305C29.2841 56.7377 29.0926 57.0875 29.8427 57.9394C30.3646 58.5322 31.5651 58.6575 31.5651 58.1192ZM15.6103 50.1418V49.054H18.8738H22.1373V50.1418V51.2297H18.8738H15.6103V50.1418ZM70.7268 66.0966C70.7268 65.8972 71.0531 65.734 71.452 65.734C71.8509 65.734 72.1772 65.5708 72.1772 65.3714C72.1772 65.172 72.6668 65.0088 73.2651 65.0088C73.8634 65.0088 74.3529 64.8456 74.3529 64.6462C74.3529 64.4468 75.1688 64.2836 76.1659 64.2836C77.1631 64.2836 77.979 64.4467 77.979 64.6462C77.979 64.8456 78.4685 65.0088 79.0668 65.0088C79.6651 65.0088 80.1546 65.172 80.1546 65.3714C80.1546 65.5708 80.481 65.734 80.8798 65.734C81.2787 65.734 81.6051 65.8972 81.6051 66.0966C81.6051 66.3198 83.4181 66.4592 86.319 66.4592C90.3626 66.4592 91.0329 66.3782 91.0329 65.8894C91.0329 65.2254 90.1822 64.2836 89.5825 64.2836C88.9827 64.2836 88.132 63.3417 88.132 62.6777C88.132 62.3075 88.4585 62.1079 89.0644 62.1079C89.5773 62.1079 90.23 61.8748 90.5149 61.5899C91.1091 60.9956 91.2088 59.9323 90.6703 59.9323C90.4708 59.9323 90.3077 59.6821 90.3077 59.3763C90.3077 59.0705 89.742 58.2546 89.0506 57.5632L87.7936 56.3062H81.0732H74.3529V55.2184V54.1305H79.792C84.4399 54.1305 85.2311 54.0496 85.2311 53.574C85.2311 53.2679 83.5994 51.3971 81.6051 49.4166C79.6107 47.4362 77.979 45.6451 77.979 45.4364C77.979 45.2276 76.2676 43.3455 74.1758 41.2537L70.3726 37.4505H66.9236H63.4746V45.7905V54.1305H67.1007H70.7268V55.2184V56.3062H66.5309C63.3779 56.3062 62.2063 56.1774 61.817 55.7882C61.3962 55.3673 61.299 53.5987 61.299 46.3604V37.4505H58.0355H54.772V51.9549V66.4592H62.7494C67.8259 66.4592 70.7268 66.3274 70.7268 66.0966ZM65.6503 5.9036C65.6503 5.68201 67.3425 5.54099 70.0016 5.54099C72.6607 5.54099 74.3529 5.68201 74.3529 5.9036C74.3529 6.10303 75.1688 6.26621 76.1659 6.26621H77.979V4.45316V2.64012H70.3642H62.7494V4.45316V6.26621H64.1999C64.9976 6.26621 65.6503 6.10304 65.6503 5.9036ZM29.3894 78.4253C29.3894 78.2259 29.133 78.0627 28.8196 78.0627C27.9637 78.0627 27.2138 77.1435 27.2138 76.0943C27.2138 75.5814 27.0506 75.1618 26.8512 75.1618C26.6517 75.1618 26.4886 74.8355 26.4886 74.4366C26.4886 74.0377 26.6517 73.7114 26.8512 73.7114C27.0506 73.7114 27.2138 73.4592 27.2138 73.151C27.2138 72.8428 27.6143 72.1901 28.1038 71.7006C28.8151 70.9893 29.3637 70.8105 30.8355 70.8105C32.4533 70.8105 32.8298 70.9633 33.9341 72.0676C34.8941 73.0275 35.1912 73.6274 35.1912 74.6058C35.1912 75.3105 35.028 75.8871 34.8286 75.8871C34.6291 75.8871 34.466 76.1392 34.466 76.4474C34.466 76.7557 34.0654 77.4084 33.5759 77.8979C32.892 78.5818 32.3041 78.7879 31.0377 78.7879C30.1311 78.7879 29.3894 78.6248 29.3894 78.4253ZM32.1255 75.7222C32.615 75.2327 33.0155 74.6499 33.0155 74.4272C33.0155 73.6375 31.962 72.9862 30.6845 72.9862C29.4432 72.9862 29.3894 73.0395 29.3894 74.2706C29.3894 76.5657 30.6259 77.2218 32.1255 75.7222ZM0.81411 62.2694C-0.0513703 61.2888 1.11789 60.6575 3.79963 60.6575H6.18249V61.7453V62.8331L3.73488 62.8194C2.04417 62.8099 1.14095 62.6398 0.81411 62.2694ZM0.81411 47.7651C0.423153 47.3221 0.434401 47.1355 0.878865 46.6911C1.27067 46.2993 2.26101 46.1531 4.52485 46.1531H7.63293V47.241V48.3288L4.4601 48.315C2.12891 48.305 1.16176 48.159 0.81411 47.7651ZM19.2364 28.7479C19.2364 28.3491 19.4092 28.0227 19.6204 28.0227C19.8316 28.0227 19.9036 27.8596 19.7803 27.6601C19.6363 27.4271 20.9248 27.2975 23.385 27.2975H27.2138V28.3853V29.4732H23.2251C19.4781 29.4732 19.2364 29.4292 19.2364 28.7479ZM30.8399 28.3853V27.2975H37.574C43.0765 27.2975 44.4077 27.397 44.8521 27.8414C45.3356 28.3249 45.3356 28.4458 44.8521 28.9292C44.4077 29.3737 43.0765 29.4732 37.574 29.4732H30.8399V28.3853ZM52.6677 28.3853C52.5858 27.3102 52.6061 27.2975 54.4037 27.2975C56.1828 27.2975 56.2225 27.3212 56.2225 28.3853C56.2225 29.4425 56.1736 29.4732 54.4866 29.4732C52.8179 29.4732 52.7474 29.431 52.6677 28.3853ZM69.2764 23.3088C69.2764 17.9466 69.3505 17.1445 69.8462 17.1445C71.1985 17.1445 71.452 18.0276 71.452 22.739V27.2975H73.6277H75.8033V28.3853V29.4732H72.5398H69.2764V23.3088ZM84.234 28.9308C83.1975 27.7535 83.6784 27.2975 85.9564 27.2975C87.6925 27.2975 88.132 27.4126 88.132 27.8673C88.132 29.3118 85.2594 30.0955 84.234 28.9308ZM17.514 23.129C16.9225 22.4572 16.9412 21.9262 17.5788 21.2886C18.3478 20.5195 41.8815 20.5195 42.6506 21.2886C43.307 21.945 43.307 22.497 42.6506 23.1534C41.8844 23.9196 18.1898 23.8966 17.514 23.129ZM22.8625 15.3314V14.2436H35.5538C46.8496 14.2436 48.2451 14.3063 48.2451 14.8134C48.2451 16.3669 47.8149 16.4192 35.0358 16.4192H22.8625V15.3314ZM69.2764 12.4306C69.2764 10.6578 69.3005 10.6175 70.3642 10.6175C71.4279 10.6175 71.452 10.6578 71.452 12.4306C71.452 14.2033 71.4278 14.2436 70.3642 14.2436C69.3005 14.2436 69.2764 14.2033 69.2764 12.4306Z" fill="white"/>
</svg>
