<svg width="92" height="85" viewBox="0 0 92 85" fill="none" xmlns="http://www.w3.org/2000/svg">
<path d="M35.5442 84.236C35.5442 84.0414 35.0667 83.8823 34.4831 83.8823C33.8995 83.8823 33.422 83.7231 33.422 83.5286C33.422 83.334 32.9445 83.1749 32.3609 83.1749C31.7773 83.1749 31.2998 83.0157 31.2998 82.8212C31.2998 82.6267 30.9815 82.4675 30.5924 82.4675C30.2034 82.4675 29.885 82.3083 29.885 82.1138C29.885 81.9193 29.4075 81.7601 28.8239 81.7601C28.2403 81.7601 27.7628 81.6009 27.7628 81.4064C27.7628 81.2119 27.2853 81.0527 26.7018 81.0527C26.1181 81.0527 25.6407 80.8935 25.6407 80.699C25.6407 80.5045 25.3223 80.3453 24.9333 80.3453C24.5442 80.3453 24.2259 80.1861 24.2259 79.9916C24.2259 79.7971 23.7484 79.6379 23.1648 79.6379C22.5812 79.6379 22.1037 79.4788 22.1037 79.2842C22.1037 79.0897 21.6262 78.9305 21.0426 78.9305C20.459 78.9305 19.9815 78.7714 19.9815 78.5768C19.9815 78.3823 19.504 78.2231 18.9204 78.2231C17.9395 78.2231 17.8593 78.3186 17.8593 79.4863C17.8593 81.7033 17.6563 81.7601 9.72427 81.7601C2.30462 81.7601 1.58923 81.6224 1.58923 80.1937C1.58923 79.888 1.43008 79.6379 1.23554 79.6379C1.00446 79.6379 0.881836 73.5071 0.881836 61.953C0.881836 50.3989 1.00446 44.2682 1.23554 44.2682C1.43006 44.2682 1.58923 44.018 1.58923 43.7123C1.58923 42.2837 2.30462 42.146 9.72427 42.146C15.4272 42.146 16.9496 42.2468 17.354 42.6513C17.6823 42.9795 17.8593 43.9178 17.8593 45.3292C17.8593 47.8771 18.3132 48.5125 20.1331 48.5125C20.8278 48.5125 21.3963 48.6717 21.3963 48.8662C21.3963 49.0607 22.0329 49.2199 22.8111 49.2199C23.5892 49.2199 24.2259 49.3791 24.2259 49.5736C24.2259 49.7681 24.5442 49.9273 24.9333 49.9273C25.3223 49.9273 25.6407 50.0865 25.6407 50.281C25.6407 50.4755 25.959 50.6347 26.348 50.6347C26.7371 50.6347 27.0555 50.7939 27.0555 50.9884C27.0555 51.1829 27.3738 51.3421 27.7628 51.3421C28.1519 51.3421 28.4702 51.5013 28.4702 51.6958C28.4702 51.8903 28.7886 52.0495 29.1776 52.0495C29.5667 52.0495 29.885 52.2087 29.885 52.4032C29.885 52.5977 30.2034 52.7569 30.5924 52.7569C30.9815 52.7569 31.2998 52.9161 31.2998 53.1106C31.2998 53.3051 31.6181 53.4643 32.0072 53.4643C32.3963 53.4643 32.7146 53.6234 32.7146 53.818C32.7146 54.0125 33.0329 54.1717 33.422 54.1717C33.8111 54.1717 34.1294 54.3308 34.1294 54.5254C34.1294 54.7199 34.9252 54.8791 35.8979 54.8791C36.8706 54.8791 37.6664 55.0382 37.6664 55.2328C37.6664 55.4471 39.1991 55.5865 41.557 55.5865C43.915 55.5865 45.4477 55.7258 45.4477 55.9402C45.4477 56.1563 47.0983 56.2939 49.6921 56.2939C52.2859 56.2939 53.9364 56.4314 53.9364 56.6476C53.9364 56.8421 54.5731 57.0013 55.3513 57.0013C56.1294 57.0013 56.766 57.1604 56.766 57.355C56.766 57.5495 57.0101 57.7087 57.3084 57.7087C57.6066 57.7087 58.4025 58.2604 59.0769 58.9348C59.7512 59.6092 60.303 60.405 60.303 60.7033C60.303 61.0016 60.4622 61.2456 60.6567 61.2456C60.8512 61.2456 61.0104 61.564 61.0104 61.953C61.0104 62.3421 61.1696 62.6604 61.3641 62.6604C61.5586 62.6604 61.7178 63.1379 61.7178 63.7215V64.7826H64.1156C66.1076 64.7826 66.5997 64.6629 67.0233 64.0752C67.3037 63.6861 67.7812 63.3678 68.0844 63.3678C68.3875 63.3678 68.865 63.0495 69.1454 62.6604C69.4259 62.2714 69.9034 61.953 70.2065 61.953C70.5097 61.953 70.9872 61.6347 71.2676 61.2456C71.5481 60.8566 72.0256 60.5382 72.3287 60.5382C72.6319 60.5382 73.1094 60.2199 73.3898 59.8308C73.6702 59.4418 74.1477 59.1234 74.4509 59.1234C74.7541 59.1234 75.2316 58.8051 75.512 58.4161C75.7924 58.027 76.2699 57.7087 76.5731 57.7087C76.8763 57.7087 77.3538 57.3903 77.6342 57.0013C77.9146 56.6122 78.3921 56.2939 78.6953 56.2939C78.9985 56.2939 79.4759 55.9755 79.7564 55.5865C80.0368 55.1974 80.5143 54.8791 80.8175 54.8791C81.1206 54.8791 81.5981 54.5607 81.8785 54.1717C82.159 53.7826 82.6716 53.4643 83.0177 53.4643C83.3638 53.4643 83.647 53.3051 83.647 53.1106C83.647 52.9109 84.6531 52.7569 85.9579 52.7569C88.123 52.7569 88.346 52.8342 89.4948 53.983C90.2486 54.7368 90.721 55.5544 90.721 56.1052C90.721 56.598 90.8802 57.0013 91.0747 57.0013C91.2692 57.0013 91.4284 57.4788 91.4284 58.0624C91.4284 58.646 91.2692 59.1234 91.0747 59.1234C90.8802 59.1234 90.721 59.4418 90.721 59.8308C90.721 60.2199 90.5618 60.5382 90.3673 60.5382C90.1728 60.5382 90.0136 60.8566 90.0136 61.2456C90.0136 61.6465 89.7778 61.953 89.4695 61.953C89.1702 61.953 87.5051 63.3855 85.7692 65.1363C84.0334 66.8871 82.4417 68.3196 82.2322 68.3196C82.0228 68.3196 80.4311 69.7521 78.6953 71.5029C76.9594 73.2537 75.3651 74.6861 75.1523 74.6861C74.9395 74.6861 73.8281 75.6411 72.6824 76.8083C71.5368 77.9755 70.3519 78.9305 70.0493 78.9305C69.7467 78.9305 69.4991 79.0897 69.4991 79.2842C69.4991 79.4787 69.0217 79.6379 68.4381 79.6379C67.8544 79.6379 67.377 79.7971 67.377 79.9916C67.377 80.1861 66.5811 80.3453 65.6085 80.3453C64.6358 80.3453 63.84 80.5045 63.84 80.699C63.84 80.9011 62.7789 81.0527 61.3641 81.0527C59.9493 81.0527 58.8882 81.2043 58.8882 81.4064C58.8882 81.6085 57.8271 81.7601 56.4123 81.7601C54.9976 81.7601 53.9364 81.9117 53.9364 82.1138C53.9364 82.3159 52.8754 82.4675 51.4606 82.4675C50.0458 82.4675 48.9847 82.6191 48.9847 82.8212C48.9847 83.0233 47.9236 83.1749 46.5088 83.1749C45.094 83.1749 44.0329 83.3265 44.0329 83.5286C44.0329 83.7307 42.9718 83.8823 41.557 83.8823C40.1423 83.8823 39.0812 84.0338 39.0812 84.236C39.0812 84.4305 38.2853 84.5897 37.3127 84.5897C36.34 84.5897 35.5442 84.4305 35.5442 84.236ZM38.3738 82.1138C38.3738 81.9117 39.4349 81.7601 40.8497 81.7601C42.2644 81.7601 43.3255 81.6085 43.3255 81.4064C43.3255 81.2043 44.3866 81.0527 45.8014 81.0527C47.2162 81.0527 48.2773 80.9011 48.2773 80.699C48.2773 80.4969 49.3384 80.3453 50.7532 80.3453C52.168 80.3453 53.2291 80.1937 53.2291 79.9916C53.2291 79.7895 54.2901 79.6379 55.7049 79.6379C57.1197 79.6379 58.1808 79.4863 58.1808 79.2842C58.1808 79.0877 59.124 78.9305 60.303 78.9305C61.482 78.9305 62.4252 78.7733 62.4252 78.5768C62.4252 78.3803 63.3684 78.2231 64.5474 78.2231C65.7264 78.2231 66.6696 78.0659 66.6696 77.8694C66.6696 77.6749 66.9879 77.5157 67.377 77.5157C67.766 77.5157 68.0844 77.3566 68.0844 77.162C68.0844 76.9675 68.4027 76.8083 68.7918 76.8083C69.1808 76.8083 69.4991 76.6492 69.4991 76.4546C69.4991 76.2601 69.744 76.1009 70.0433 76.1009C70.3425 76.1009 72.0077 74.6685 73.7435 72.9177C75.4794 71.1669 77.071 69.7344 77.2805 69.7344C77.49 69.7344 79.0816 68.3019 80.8175 66.5511C82.5533 64.8003 84.1423 63.3678 84.3485 63.3678C84.5548 63.3678 85.5955 62.4959 86.6612 61.4302C88.541 59.5503 88.5988 59.4343 88.5988 57.5395C88.5988 55.8223 88.5134 55.5865 87.8914 55.5865C87.5023 55.5865 87.184 55.4273 87.184 55.2328C87.184 55.0383 86.5825 54.8791 85.8473 54.8791C84.9163 54.8791 84.3558 55.0938 84.0007 55.5865C83.7203 55.9755 83.2428 56.2939 82.9396 56.2939C82.6365 56.2939 82.159 56.6122 81.8785 57.0013C81.5981 57.3903 81.1206 57.7087 80.8175 57.7087C80.5143 57.7087 80.0368 58.027 79.7564 58.4161C79.4759 58.8051 78.9985 59.1234 78.6953 59.1234C78.3921 59.1234 77.9146 59.4418 77.6342 59.8308C77.3538 60.2199 76.8763 60.5382 76.5731 60.5382C76.2699 60.5382 75.7924 60.8566 75.512 61.2456C75.2316 61.6347 74.7541 61.953 74.4509 61.953C74.1477 61.953 73.6702 62.2714 73.3898 62.6604C73.1094 63.0495 72.6319 63.3678 72.3287 63.3678C72.0256 63.3678 71.5481 63.6861 71.2676 64.0752C70.9872 64.4643 70.5097 64.7826 70.2065 64.7826C69.9034 64.7826 69.4259 65.1009 69.1454 65.49C68.865 65.8791 68.3524 66.1974 68.0063 66.1974C67.6602 66.1974 67.377 66.3566 67.377 66.5511C67.377 66.7456 67.0586 66.9048 66.6696 66.9048C66.2805 66.9048 65.9622 67.064 65.9622 67.2585C65.9622 67.453 65.4847 67.6122 64.9011 67.6122C64.3175 67.6122 63.84 67.453 63.84 67.2585C63.84 67.0489 62.5431 66.9048 60.6567 66.9048C58.7703 66.9048 57.4734 67.0489 57.4734 67.2585C57.4734 67.4796 55.3513 67.6122 51.8143 67.6122C48.2773 67.6122 46.1551 67.7448 46.1551 67.9659C46.1551 68.1902 43.497 68.3196 38.8882 68.3196C31.6444 68.3196 31.6186 68.3168 30.7532 67.4514C29.7565 66.4548 29.68 65.9982 30.3903 65.2879C31.0905 64.5877 31.7601 64.6564 32.3609 65.49C32.8337 66.146 33.2765 66.1974 38.4518 66.1974C41.9368 66.1974 44.0329 66.0646 44.0329 65.8437C44.0329 65.6226 46.1551 65.49 49.6921 65.49C53.2291 65.49 55.3513 65.3574 55.3513 65.1363C55.3513 64.9398 56.2944 64.7826 57.4734 64.7826C58.6524 64.7826 59.5956 64.6254 59.5956 64.4289C59.5956 64.2344 59.4364 64.0752 59.2419 64.0752C59.0474 64.0752 58.8882 63.5977 58.8882 63.0141C58.8882 62.4305 58.729 61.953 58.5345 61.953C58.34 61.953 58.1808 61.7029 58.1808 61.3972C58.1808 61.0915 57.9535 60.614 57.6755 60.3361C57.3976 60.0582 56.9202 59.8308 56.6145 59.8308C56.3088 59.8308 56.0586 59.6717 56.0586 59.4772C56.0586 59.2826 55.2628 59.1234 54.2901 59.1234C53.3175 59.1234 52.5217 58.9643 52.5217 58.7698C52.5217 58.5536 50.8711 58.4161 48.2773 58.4161C45.6835 58.4161 44.0329 58.2785 44.0329 58.0624C44.0329 57.848 42.5002 57.7087 40.1422 57.7087C37.7843 57.7087 36.2516 57.5693 36.2516 57.355C36.2516 57.1604 35.6149 57.0013 34.8368 57.0013C34.0587 57.0013 33.422 56.8421 33.422 56.6476C33.422 56.453 33.1037 56.2939 32.7146 56.2939C32.3255 56.2939 32.0072 56.1347 32.0072 55.9402C32.0072 55.7456 31.6889 55.5865 31.2998 55.5865C30.9107 55.5865 30.5924 55.4273 30.5924 55.2328C30.5924 55.0383 30.2741 54.8791 29.885 54.8791C29.496 54.8791 29.1776 54.7199 29.1776 54.5254C29.1776 54.3309 28.8593 54.1717 28.4702 54.1717C28.0812 54.1717 27.7628 54.0125 27.7628 53.818C27.7628 53.6235 27.4445 53.4643 27.0555 53.4643C26.6664 53.4643 26.348 53.3051 26.348 53.1106C26.348 52.9161 26.0297 52.7569 25.6407 52.7569C25.2516 52.7569 24.9333 52.5977 24.9333 52.4032C24.9333 52.2087 24.6149 52.0495 24.2259 52.0495C23.8368 52.0495 23.5185 51.8903 23.5185 51.6958C23.5185 51.5013 22.8818 51.3421 22.1037 51.3421C21.3256 51.3421 20.6889 51.183 20.6889 50.9884C20.6889 50.4516 18.9388 50.5658 18.3646 51.14C18.0741 51.4305 17.8593 52.3325 17.8593 53.2622C17.8593 54.8229 17.8225 54.8791 16.7982 54.8791H15.7371V49.5736V44.2682H9.87586C5.26769 44.2682 3.90656 44.3762 3.5093 44.7734C2.75497 45.5278 2.75497 78.3783 3.5093 79.1326C3.90656 79.5299 5.26769 79.6379 9.87586 79.6379H15.7371V69.886C15.7371 59.6785 15.8179 59.1234 17.3035 59.1234C17.7927 59.1234 17.8593 60.0988 17.8593 67.2585C17.8593 75.1577 17.8798 75.3935 18.5667 75.3935C18.9558 75.3935 19.2741 75.5527 19.2741 75.7472C19.2741 75.9418 19.7516 76.1009 20.3352 76.1009C20.9188 76.1009 21.3963 76.2601 21.3963 76.4546C21.3963 76.6492 21.7146 76.8083 22.1037 76.8083C22.4928 76.8083 22.8111 76.9675 22.8111 77.162C22.8111 77.3565 23.2886 77.5157 23.8722 77.5157C24.4558 77.5157 24.9333 77.6749 24.9333 77.8694C24.9333 78.0639 25.2516 78.2231 25.6407 78.2231C26.0297 78.2231 26.348 78.3823 26.348 78.5768C26.348 78.7713 26.8255 78.9305 27.4091 78.9305C27.9927 78.9305 28.4702 79.0897 28.4702 79.2842C28.4702 79.4787 28.9477 79.6379 29.5313 79.6379C30.1149 79.6379 30.5924 79.7971 30.5924 79.9916C30.5924 80.1861 30.9107 80.3453 31.2998 80.3453C31.6889 80.3453 32.0072 80.5045 32.0072 80.699C32.0072 80.8935 32.4847 81.0527 33.0683 81.0527C33.6519 81.0527 34.1294 81.2119 34.1294 81.4064C34.1294 81.6009 34.6069 81.7601 35.1905 81.7601C35.7741 81.7601 36.2516 81.9192 36.2516 82.1138C36.2516 82.3083 36.7291 82.4675 37.3127 82.4675C37.8963 82.4675 38.3738 82.3083 38.3738 82.1138ZM6.27573 75.5561C5.2626 74.4953 5.12621 74.1205 5.12621 72.3972C5.12621 71.3217 5.28535 70.4418 5.4799 70.4418C5.67442 70.4418 5.8336 70.1234 5.8336 69.7344C5.8336 69.2628 6.06939 69.027 6.54099 69.027C6.93006 69.027 7.2484 68.8678 7.2484 68.6733C7.2484 68.4768 8.19158 68.3196 9.37057 68.3196C10.5496 68.3196 11.4928 68.4768 11.4928 68.6733C11.4928 68.8678 11.8111 69.027 12.2002 69.027C12.6718 69.027 12.9076 69.2628 12.9076 69.7344C12.9076 70.1234 13.0667 70.4418 13.2613 70.4418C13.4558 70.4418 13.6149 71.3225 13.6149 72.3989C13.6149 74.1604 13.4924 74.4786 12.3888 75.5822C11.2891 76.6818 10.9699 76.8058 9.29394 76.784C7.64467 76.7626 7.29026 76.6184 6.27573 75.5561ZM10.9875 74.1809C11.2654 73.903 11.4928 73.1753 11.4928 72.564C11.4928 71.1515 10.7831 70.4418 9.37057 70.4418C8.75918 70.4418 8.03158 70.6691 7.75368 70.9471C7.13058 71.5702 7.09302 73.4784 7.69051 74.1571C8.26706 74.8119 10.3414 74.8269 10.9875 74.1809ZM44.7403 50.9884C44.7403 50.7939 44.422 50.6347 44.0329 50.6347C43.6439 50.6347 43.3255 50.4756 43.3255 50.281C43.3255 50.0865 43.0423 49.9273 42.6962 49.9273C42.3501 49.9273 41.8375 49.609 41.557 49.2199C41.2766 48.8309 40.7991 48.5125 40.4959 48.5125C40.1928 48.5125 39.7153 48.1942 39.4349 47.8051C39.1544 47.4161 38.7197 47.0977 38.4688 47.0977C38.2178 47.0977 36.1839 45.269 33.9488 43.034C31.7137 40.7989 29.885 38.7649 29.885 38.514C29.885 38.2631 29.5667 37.8283 29.1776 37.5479C28.7886 37.2675 28.4702 36.79 28.4702 36.4868C28.4702 36.1836 28.1519 35.7061 27.7628 35.4257C27.3738 35.1453 27.0555 34.6327 27.0555 34.2865C27.0555 33.9404 26.8963 33.6572 26.7018 33.6572C26.5072 33.6572 26.348 33.3389 26.348 32.9498C26.348 32.5608 26.1889 32.2424 25.9944 32.2424C25.7998 32.2424 25.6407 31.9241 25.6407 31.535C25.6407 31.146 25.4815 30.8277 25.287 30.8277C25.0924 30.8277 24.9333 30.3502 24.9333 29.7666C24.9333 29.183 24.7741 28.7055 24.5796 28.7055C24.385 28.7055 24.2259 28.3871 24.2259 27.9981C24.2259 27.609 24.0667 27.2907 23.8722 27.2907C23.6776 27.2907 23.5185 26.8132 23.5185 26.2296C23.5185 25.646 23.3593 25.1685 23.1648 25.1685C22.9703 25.1685 22.8111 24.5318 22.8111 23.7537C22.8111 22.9756 22.6519 22.3389 22.4574 22.3389C22.2629 22.3389 22.1037 21.7023 22.1037 20.9241C22.1037 20.146 21.9445 19.5093 21.75 19.5093C21.5417 19.5093 21.3963 18.263 21.3963 16.4776C21.3963 13.358 21.7538 12.4354 22.9627 12.4354C23.2684 12.4354 23.5185 12.2762 23.5185 12.0817C23.5185 11.8872 23.7607 11.728 24.0567 11.728C24.7572 11.728 28.4702 8.01497 28.4702 7.31446C28.4702 7.01843 28.6294 6.77622 28.8239 6.77622C29.0185 6.77622 29.1776 6.45789 29.1776 6.06883C29.1776 5.67976 29.3368 5.36143 29.5313 5.36143C29.7259 5.36143 29.885 4.63796 29.885 3.75372C29.885 2.51836 30.0861 1.94493 30.7532 1.27783L31.6214 0.409668H46.1643C61.4727 0.409668 61.7178 0.434352 61.7178 1.97604C61.7178 2.28174 61.877 2.53185 62.0715 2.53185C62.266 2.53185 62.4252 3.16851 62.4252 3.94664C62.4252 4.72478 62.5844 5.36143 62.7789 5.36143C62.9734 5.36143 63.1326 5.67976 63.1326 6.06883C63.1326 6.45789 63.2918 6.77622 63.4863 6.77622C63.6808 6.77622 63.84 7.01916 63.84 7.31607C63.84 8.01797 66.8426 11.0206 67.5445 11.0206C67.8414 11.0206 68.0844 11.1798 68.0844 11.3743C68.0844 11.5688 68.3303 11.728 68.631 11.728C68.9316 11.728 69.5683 12.1187 70.0458 12.5962C70.8141 13.3645 70.9139 13.7712 70.9139 16.1331C70.9139 17.6765 70.7647 18.8019 70.5602 18.8019C70.3657 18.8019 70.2065 19.5978 70.2065 20.5704C70.2065 21.5431 70.0473 22.3389 69.8528 22.3389C69.6583 22.3389 69.4991 22.9756 69.4991 23.7537C69.4991 24.5318 69.3399 25.1685 69.1454 25.1685C68.9509 25.1685 68.7918 25.646 68.7918 26.2296C68.7918 26.8132 68.6326 27.2907 68.4381 27.2907C68.2436 27.2907 68.0844 27.609 68.0844 27.9981C68.0844 28.3871 67.9251 28.7055 67.7307 28.7055C67.5362 28.7055 67.377 29.183 67.377 29.7666C67.377 30.3502 67.2177 30.8277 67.0233 30.8277C66.8287 30.8277 66.6696 31.146 66.6696 31.535C66.6696 31.9241 66.5103 32.2424 66.3159 32.2424C66.1214 32.2424 65.9622 32.5608 65.9622 32.9498C65.9622 33.3389 65.803 33.6572 65.6085 33.6572C65.414 33.6572 65.2548 33.9404 65.2548 34.2865C65.2548 34.6327 64.9365 35.1453 64.5474 35.4257C64.1583 35.7061 63.84 36.1836 63.84 36.4868C63.84 36.79 63.5217 37.2675 63.1326 37.5479C62.7435 37.8283 62.4252 38.2771 62.4252 38.5452C62.4252 38.8132 61.9477 39.4786 61.3641 40.0238C60.7805 40.569 60.303 41.1933 60.303 41.4113C60.303 41.9278 56.5478 45.6829 56.0314 45.6829C55.8134 45.6829 55.189 46.1604 54.6439 46.744C54.0987 47.3276 53.4333 47.8051 53.1652 47.8051C52.8972 47.8051 52.4484 48.1235 52.168 48.5125C51.8875 48.9016 51.3749 49.2199 51.0288 49.2199C50.6827 49.2199 50.3995 49.3791 50.3995 49.5736C50.3995 49.7681 50.1163 49.9273 49.7702 49.9273C49.424 49.9273 48.9114 50.2456 48.631 50.6347C48.2435 51.1723 47.7154 51.3421 46.4307 51.3421C45.501 51.3421 44.7403 51.183 44.7403 50.9884ZM46.8625 48.8662C46.8625 48.6717 47.1808 48.5125 47.5699 48.5125C47.959 48.5125 48.2773 48.3534 48.2773 48.1588C48.2773 47.9643 48.5605 47.8051 48.9066 47.8051C49.2527 47.8051 49.7654 47.4868 50.0458 47.0977C50.3262 46.7087 50.8037 46.3903 51.1069 46.3903C51.4101 46.3903 51.8875 46.072 52.168 45.6829C52.4484 45.2939 52.8837 44.9756 53.1354 44.9756C53.6932 44.9756 59.5956 39.1314 59.5956 38.5791C59.5956 38.3626 60.0731 37.7394 60.6567 37.1942C61.2403 36.649 61.7178 35.9837 61.7178 35.7156C61.7178 35.4475 62.0361 34.9987 62.4252 34.7183C62.8143 34.4379 63.1326 33.9253 63.1326 33.5791C63.1326 33.233 63.2918 32.9498 63.4863 32.9498C63.6808 32.9498 63.84 32.6315 63.84 32.2424C63.84 31.8534 63.9992 31.535 64.1937 31.535C64.3882 31.535 64.5474 31.2167 64.5474 30.8277C64.5474 30.4386 64.7066 30.1203 64.9011 30.1203C65.0956 30.1203 65.2548 29.6428 65.2548 29.0592C65.2548 28.4756 65.414 27.9981 65.6085 27.9981C65.803 27.9981 65.9622 27.6797 65.9622 27.2907C65.9622 26.9016 66.1214 26.5833 66.3159 26.5833C66.5104 26.5833 66.6696 26.1058 66.6696 25.5222C66.6696 24.9386 66.8288 24.4611 67.0233 24.4611C67.2178 24.4611 67.377 23.8244 67.377 23.0463C67.377 22.2682 67.5362 21.6315 67.7307 21.6315C67.9252 21.6315 68.0844 20.8357 68.0844 19.863C68.0844 18.8904 68.2436 18.0945 68.4381 18.0945C68.6326 18.0945 68.7918 17.3669 68.7918 16.4776C68.7918 14.8547 68.2228 13.8502 67.3034 13.8502C67.0407 13.8502 66.5963 13.5318 66.3159 13.1428C66.0355 12.7537 65.5952 12.4354 65.3375 12.4354C64.7302 12.4354 63.1326 10.8378 63.1326 10.2305C63.1326 9.97281 62.8143 9.53253 62.4252 9.2521C62.0361 8.97168 61.7178 8.45905 61.7178 8.11293C61.7178 7.76681 61.5586 7.48362 61.3641 7.48362C61.1696 7.48362 61.0104 7.16529 61.0104 6.77622C61.0104 6.38716 60.8512 6.06883 60.6567 6.06883C60.4622 6.06883 60.303 5.50039 60.303 4.80562C60.303 2.46331 60.7447 2.53185 45.6498 2.53185H32.0072V4.30034C32.0072 5.27301 31.8481 6.06883 31.6535 6.06883C31.459 6.06883 31.2998 6.38716 31.2998 6.77622C31.2998 7.16529 31.1407 7.48362 30.9461 7.48362C30.7516 7.48362 30.5924 7.80195 30.5924 8.19102C30.5924 8.58008 30.4333 8.89841 30.2387 8.89841C30.0442 8.89841 29.885 9.14134 29.885 9.43826C29.885 10.1402 26.8824 13.1428 26.1805 13.1428C25.8836 13.1428 25.6407 13.3019 25.6407 13.4965C25.6407 13.691 25.3905 13.8502 25.0848 13.8502C24.0193 13.8502 23.5185 14.8033 23.5185 16.8313C23.5185 17.9152 23.6776 18.8019 23.8722 18.8019C24.0667 18.8019 24.2259 19.4386 24.2259 20.2167C24.2259 20.9949 24.385 21.6315 24.5796 21.6315C24.7741 21.6315 24.9333 22.2682 24.9333 23.0463C24.9333 23.8244 25.0924 24.4611 25.287 24.4611C25.4815 24.4611 25.6407 24.9386 25.6407 25.5222C25.6407 26.1058 25.7998 26.5833 25.9944 26.5833C26.1889 26.5833 26.348 26.9016 26.348 27.2907C26.348 27.6797 26.5072 27.9981 26.7018 27.9981C26.8963 27.9981 27.0555 28.4756 27.0555 29.0592C27.0555 29.6428 27.2146 30.1203 27.4091 30.1203C27.6037 30.1203 27.7628 30.4386 27.7628 30.8277C27.7628 31.2167 27.922 31.535 28.1165 31.535C28.3111 31.535 28.4702 31.8182 28.4702 32.1644C28.4702 32.5105 28.7886 33.0231 29.1776 33.3035C29.5667 33.584 29.885 34.0966 29.885 34.4427C29.885 34.7888 30.0442 35.072 30.2387 35.072C30.4333 35.072 30.5924 35.3232 30.5924 35.6303C30.5924 35.9374 31.2291 36.8003 32.0072 37.5479C32.7854 38.2955 33.422 39.0818 33.422 39.2952C33.422 39.8054 37.8912 44.2682 38.4022 44.2682C38.6195 44.2682 39.2434 44.7456 39.7886 45.3292C40.3337 45.9128 40.9991 46.3903 41.2672 46.3903C41.5352 46.3903 41.984 46.7087 42.2644 47.0977C42.5449 47.4868 43.0575 47.8051 43.4036 47.8051C43.7497 47.8051 44.0329 47.9643 44.0329 48.1588C44.0329 48.3534 44.3513 48.5125 44.7403 48.5125C45.1294 48.5125 45.4477 48.6717 45.4477 48.8662C45.4477 49.0607 45.7661 49.2199 46.1551 49.2199C46.5442 49.2199 46.8625 49.0608 46.8625 48.8662ZM44.7403 45.3292C44.7403 45.1347 44.4571 44.9756 44.111 44.9756C43.7649 44.9756 43.2523 44.6572 42.9718 44.2682C42.6914 43.8791 42.2459 43.5608 41.9818 43.5608C41.7177 43.5608 40.8899 42.9241 40.1422 42.146C39.3946 41.3678 38.604 40.7312 38.3854 40.7312C37.8695 40.7312 36.2516 39.1132 36.2516 38.5973C36.2516 38.3787 35.6149 37.5881 34.8368 36.8405C34.0587 36.0929 33.422 35.2651 33.422 35.001C33.422 34.7369 33.1037 34.2914 32.7146 34.0109C32.3255 33.7305 32.0072 33.2179 32.0072 32.8718C32.0072 32.5256 31.8481 32.2424 31.6535 32.2424C31.459 32.2424 31.2998 31.9241 31.2998 31.535C31.2998 31.146 31.1407 30.8277 30.9461 30.8277C30.7516 30.8277 30.5924 30.5093 30.5924 30.1203C30.5924 29.7312 30.4333 29.4129 30.2387 29.4129C30.0442 29.4129 29.885 29.0945 29.885 28.7055C29.885 28.3164 29.7259 27.9981 29.5313 27.9981C29.3368 27.9981 29.1776 27.6797 29.1776 27.2907C29.1776 26.7667 29.4134 26.5833 30.0871 26.5833C31.1106 26.5833 32.0072 27.3147 32.0072 28.1497C32.0072 28.4554 32.1664 28.7055 32.3609 28.7055C32.5554 28.7055 32.7146 29.0238 32.7146 29.4129C32.7146 29.8019 32.8738 30.1203 33.0683 30.1203C33.2628 30.1203 33.422 30.4034 33.422 30.7496C33.422 31.0957 33.7403 31.6083 34.1294 31.8887C34.5185 32.1692 34.8368 32.6467 34.8368 32.9498C34.8368 33.253 35.1551 33.7305 35.5442 34.0109C35.9333 34.2914 36.2516 34.727 36.2516 34.979C36.2516 35.5378 41.3874 40.7312 41.94 40.7312C42.1569 40.7312 42.7804 41.2087 43.3255 41.7923C43.8707 42.3759 44.5712 42.8534 44.8822 42.8534C45.1933 42.8534 45.4477 43.0125 45.4477 43.2071C45.4477 43.4016 45.7661 43.5608 46.1551 43.5608C46.5442 43.5608 46.8625 43.4016 46.8625 43.2071C46.8625 43.0125 47.1457 42.8534 47.4918 42.8534C47.8379 42.8534 48.3506 42.535 48.631 42.146C48.9114 41.7569 49.3465 41.4386 49.5978 41.4386C50.194 41.4386 56.766 34.8666 56.766 34.2704C56.766 34.019 57.0844 33.584 57.4734 33.3035C57.8625 33.0231 58.1808 32.5105 58.1808 32.1644C58.1808 31.8182 58.34 31.535 58.5345 31.535C58.729 31.535 58.8882 31.2167 58.8882 30.8277C58.8882 30.4386 59.0474 30.1203 59.2419 30.1203C59.4364 30.1203 59.5956 29.8019 59.5956 29.4129C59.5956 29.0238 59.7548 28.7055 59.9493 28.7055C60.1438 28.7055 60.303 28.4595 60.303 28.1588C60.303 27.8582 60.703 27.2122 61.1919 26.7234C61.9785 25.9368 62.1412 25.895 62.6066 26.3605C63.2031 26.9569 63.3126 27.9981 62.7789 27.9981C62.5844 27.9981 62.4252 28.3164 62.4252 28.7055C62.4252 29.0945 62.266 29.4129 62.0715 29.4129C61.877 29.4129 61.7178 29.7312 61.7178 30.1203C61.7178 30.5093 61.5586 30.8277 61.3641 30.8277C61.1696 30.8277 61.0104 31.146 61.0104 31.535C61.0104 31.9241 60.8512 32.2424 60.6567 32.2424C60.4622 32.2424 60.303 32.5256 60.303 32.8718C60.303 33.2179 59.9847 33.7305 59.5956 34.0109C59.2065 34.2914 58.8882 34.7688 58.8882 35.072C58.8882 35.3752 58.5699 35.8527 58.1808 36.1331C57.7918 36.4135 57.4734 36.8495 57.4734 37.102C57.4734 37.6621 53.0463 42.146 52.4933 42.146C52.2759 42.146 51.652 42.6235 51.1069 43.2071C50.5617 43.7907 49.8963 44.2682 49.6283 44.2682C49.3602 44.2682 48.9114 44.5865 48.631 44.9756C48.2435 45.5132 47.7154 45.6829 46.4307 45.6829C45.501 45.6829 44.7403 45.5238 44.7403 45.3292ZM41.9992 28.5058C40.3943 26.87 39.0812 25.359 39.0812 25.148C39.0812 24.9369 39.3181 24.5273 39.6078 24.2377C40.0741 23.7713 40.4186 23.9993 42.6181 26.2296C44.8177 28.4599 45.1622 28.6878 45.6285 28.2215C45.9181 27.9319 46.1551 27.4799 46.1551 27.2172C46.1551 26.9544 46.4734 26.51 46.8625 26.2296C47.2516 25.9492 47.5699 25.4717 47.5699 25.1685C47.5699 24.8653 47.8882 24.3878 48.2773 24.1074C48.6664 23.827 48.9847 23.3495 48.9847 23.0463C48.9847 22.7431 49.303 22.2656 49.6921 21.9852C50.0812 21.7048 50.3995 21.2273 50.3995 20.9241C50.3995 20.6209 50.7178 20.1435 51.1069 19.863C51.4959 19.5826 51.8143 19.1051 51.8143 18.8019C51.8143 18.4988 52.1326 18.0213 52.5217 17.7408C52.9107 17.4604 53.2291 16.9478 53.2291 16.6017C53.2291 16.1382 53.5087 15.9724 54.2901 15.9724C55.2333 15.9724 55.3513 16.0903 55.3513 17.0335C55.3513 17.6171 55.192 18.0945 54.9976 18.0945C54.803 18.0945 54.6439 18.3777 54.6439 18.7239C54.6439 19.07 54.3255 19.5826 53.9364 19.863C53.5474 20.1435 53.2291 20.6209 53.2291 20.9241C53.2291 21.2273 52.9107 21.7048 52.5217 21.9852C52.1326 22.2656 51.8143 22.7431 51.8143 23.0463C51.8143 23.3495 51.4959 23.827 51.1069 24.1074C50.7178 24.3878 50.3995 24.8653 50.3995 25.1685C50.3995 25.4717 50.0812 25.9492 49.6921 26.2296C49.303 26.51 48.9847 26.9875 48.9847 27.2907C48.9847 27.5939 48.6664 28.0713 48.2773 28.3518C47.8882 28.6322 47.5699 29.0725 47.5699 29.3302C47.5699 29.9465 45.9611 31.5427 45.3754 31.5075C45.1234 31.4922 43.6041 30.1415 41.9992 28.5058ZM27.7628 22.3389C27.7628 21.9498 27.6037 21.6315 27.4091 21.6315C27.2146 21.6315 27.0555 20.9949 27.0555 20.2167C27.0555 19.4386 26.8963 18.8019 26.7018 18.8019C26.5072 18.8019 26.348 18.1653 26.348 17.3871C26.348 16.3587 26.4945 15.9724 26.8843 15.9724C27.5831 15.9724 32.7146 10.8409 32.7146 10.1421C32.7146 9.84711 32.8738 9.6058 33.0683 9.6058C33.2628 9.6058 33.422 9.28748 33.422 8.89841C33.422 8.50934 33.5812 8.19102 33.7757 8.19102C33.9702 8.19102 34.1294 7.78173 34.1294 7.2815C34.1294 5.37618 34.2217 5.36143 46.1551 5.36143C58.0885 5.36143 58.1808 5.37627 58.1808 7.2815C58.1808 7.78173 58.34 8.19102 58.5345 8.19102C58.729 8.19102 58.8882 8.50934 58.8882 8.89841C58.8882 9.28748 59.0474 9.6058 59.2419 9.6058C59.4364 9.6058 59.5956 9.8475 59.5956 10.1429C59.5956 10.7522 63.9748 15.265 64.5661 15.265C65.3275 15.265 65.9622 16.2986 65.9622 17.5387C65.9622 18.2335 65.803 18.8019 65.6085 18.8019C65.414 18.8019 65.2548 19.3704 65.2548 20.0651C65.2548 21.4027 64.6098 22.3389 63.6884 22.3389C63.2457 22.3389 63.1326 21.9129 63.1326 20.2462C63.1326 18.9124 63.2892 18.1013 63.5647 18.0095C64.0516 17.8471 62.3559 15.9724 61.7221 15.9724C61.1806 15.9724 58.8882 13.6131 58.8882 13.0558C58.8882 12.8005 58.5699 12.3621 58.1808 12.0817C57.7918 11.8013 57.4734 11.2886 57.4734 10.9425C57.4734 10.5964 57.3142 10.3132 57.1197 10.3132C56.9252 10.3132 56.766 9.99487 56.766 9.6058C56.766 9.21674 56.6068 8.89841 56.4123 8.89841C56.2178 8.89841 56.0586 8.58008 56.0586 8.19102C56.0586 7.50046 55.8228 7.48362 46.1551 7.48362C36.4874 7.48362 36.2516 7.50046 36.2516 8.19102C36.2516 8.58008 36.0924 8.89841 35.8979 8.89841C35.7034 8.89841 35.5442 9.21674 35.5442 9.6058C35.5442 9.99487 35.385 10.3132 35.1905 10.3132C34.996 10.3132 34.8368 10.5964 34.8368 10.9425C34.8368 11.2886 34.5185 11.8013 34.1294 12.0817C33.7403 12.3621 33.422 12.7993 33.422 13.0533C33.422 13.6119 30.4164 16.6798 29.8691 16.6798C29.2147 16.6798 28.2289 17.8373 28.7387 18.0072C28.9885 18.0904 29.1776 18.7503 29.1776 19.5388C29.1776 20.3007 29.3368 20.9241 29.5313 20.9241C30.0567 20.9241 29.9594 21.9614 29.3798 22.541C28.6437 23.2771 27.7628 23.167 27.7628 22.3389Z" fill="white"/>
</svg>
