<svg width="1508" height="1508" viewBox="0 0 1508 1508" fill="none" xmlns="http://www.w3.org/2000/svg">
<g clip-path="url(#clip0_39_765)">
<path d="M1338.57 754.005C1338.57 1076.89 1076.83 1338.63 753.947 1338.63C431.067 1338.63 169.326 1076.89 169.326 754.005C169.326 431.125 431.067 169.384 753.947 169.384C1076.83 169.384 1338.57 431.125 1338.57 754.005Z" fill="#76B82A"/>
<path d="M344.275 477.92C373.058 458.976 400.323 438.025 426.267 415.801C451.967 393.382 476.442 369.641 497.638 343.501C508.309 330.529 518.148 316.921 526.764 302.774L528.379 300.13L530.435 296.9C532.099 294.452 534.008 292.151 536.211 290.095C540.568 285.935 545.855 282.704 551.533 280.746C562.987 276.83 576.057 278.054 586.729 284.368C592.015 287.55 596.666 291.858 600.043 296.9L607.337 308.109L621.288 330.039C630.54 344.676 639.498 359.557 648.015 374.781C652.274 382.368 656.484 390.004 660.596 397.787L662.113 400.725L662.896 402.193L663.288 402.927L663.875 404.151C665.442 407.333 666.421 411.151 666.861 414.773C667.644 422.214 665.98 428.578 664.414 433.473C662.749 438.417 661.036 442.431 659.812 445.906L657.903 451.682C657.218 453.836 656.484 455.99 655.7 458.095C652.763 466.612 649.337 474.934 645.568 483.06C630.589 515.563 611.547 545.717 589.617 573.521C567.393 601.081 542.477 626.339 515.162 648.612C487.652 670.64 458.232 690.171 427.002 705.982L426.512 706.227C422.107 708.479 416.722 706.668 414.47 702.262C413.785 700.94 413.491 699.423 413.491 698.052C413.834 682.731 412.953 666.675 411.191 651.059C409.428 635.395 406.785 619.829 402.33 604.801C397.778 589.871 391.757 575.186 381.967 563.095C377.023 557.123 371.149 551.934 364.296 548.116C357.443 544.298 349.561 542.242 341.533 541.654C349.561 541.165 357.883 542.242 365.617 545.277C373.352 548.263 380.401 553.158 386.324 559.032C398.219 570.878 406.442 585.857 412.463 601.227C418.484 616.647 422.792 632.654 425.876 648.808C428.862 665.059 430.869 681.164 431.701 698.003L418.191 690.073C447.023 672.402 474.533 652.675 499.498 630.108C524.659 607.885 547.666 583.214 567.736 556.486C588.05 530.004 605.722 501.368 619.183 471.165C622.512 463.626 625.645 455.99 628.435 448.305C629.169 446.396 629.805 444.487 630.442 442.529L632.694 436.067C634.407 431.466 636.12 427.55 637.197 424.368C638.323 421.137 638.617 418.885 638.47 417.759C638.372 417.172 638.372 416.683 637.98 415.997L637.882 415.752L637.54 415.067L636.805 413.648L635.386 410.808C631.519 403.319 627.505 395.829 623.442 388.389C615.218 373.557 606.701 358.725 598.183 343.941L585.162 321.865L578.701 311.193C577.379 309.039 575.617 307.326 573.561 305.956C569.498 303.263 563.966 302.48 559.022 303.9C556.526 304.585 554.225 305.809 552.267 307.473C551.288 308.305 550.358 309.284 549.526 310.361L548.008 312.515L546.099 315.256C536.015 329.942 524.806 343.746 512.911 356.718C500.967 369.69 488.092 381.634 474.925 393.088C461.708 404.543 448.002 415.263 433.757 425.249C419.61 435.333 405.072 444.829 390.142 453.592C375.261 462.452 359.988 470.577 344.324 477.822" fill="white"/>
<path d="M656.978 420.016C736.915 452.03 816.264 485.512 895.369 519.68C934.872 536.813 974.229 554.386 1013.44 572.302C1033.07 581.309 1052.65 590.316 1072.03 600.057C1076.93 602.505 1081.58 604.708 1086.96 607.743C1092.05 610.777 1097 614.057 1101.55 617.777C1110.8 625.12 1118.78 633.638 1125.83 642.693C1139.93 660.854 1150.31 680.973 1158.97 701.386C1167.54 721.896 1174.34 742.798 1180.31 763.847C1192.16 805.945 1201.02 848.385 1209.44 890.679C1217.66 932.972 1225.54 975.217 1234.84 1016.83C1239.49 1037.63 1244.58 1058.29 1250.31 1078.7C1255.94 1099.11 1262.3 1119.23 1269.75 1138.76L1269.89 1139.1C1271.56 1143.51 1270.77 1148.31 1268.28 1151.93C1265.49 1155.94 1263.14 1158.78 1260.49 1162.01C1257.9 1165.1 1255.21 1168.08 1252.51 1171.02C1247.08 1176.85 1241.35 1182.38 1235.48 1187.71C1223.63 1198.24 1211.05 1207.83 1197.74 1216.35C1171.21 1233.48 1141.69 1245.82 1111.29 1253.65C1080.84 1261.34 1049.37 1264.71 1018.28 1263.54C987.152 1262.41 956.46 1257.47 926.697 1249.68H926.453C922.047 1248.46 919.061 1244.64 918.718 1240.29C916.271 1204.55 913.481 1168.62 910.054 1132.84C906.579 1097.06 902.662 1061.32 898.012 1025.64C892.725 989.56 892.53 952.651 896.739 916.623C898.746 898.56 901.634 880.644 905.697 863.022C909.711 845.399 914.46 827.924 920.529 810.938C915.585 828.266 912.012 845.938 909.173 863.707C906.432 881.476 904.327 899.294 903.397 917.21C902.369 935.077 902.222 952.993 903.397 970.763C903.69 979.672 904.865 988.532 905.697 997.343C906.97 1006.15 908.243 1014.82 909.907 1023.73C916.565 1059.27 922.096 1095.05 926.942 1130.83C931.788 1166.66 936.292 1202.5 939.62 1238.62L931.641 1229.27C960.376 1235.68 989.599 1239.26 1018.73 1239.26C1047.8 1239.5 1076.73 1235.88 1104.49 1228.15C1132.24 1220.46 1158.53 1208.27 1182.56 1192.75C1194.56 1184.97 1205.91 1176.21 1216.49 1166.62C1221.72 1161.77 1226.82 1156.78 1231.61 1151.59C1234.01 1148.99 1236.31 1146.35 1238.51 1143.66C1240.67 1141.06 1243.02 1138.03 1244.49 1135.87L1243.02 1149.04C1226.96 1107.78 1216.05 1065.38 1206.84 1022.99C1197.59 980.553 1190 938.112 1182.03 895.868C1174.14 853.672 1166.36 811.574 1155.54 770.602C1150.16 750.141 1143.94 729.973 1136.35 710.539C1128.82 691.155 1119.76 672.407 1107.91 656.155C1102.04 648.029 1095.38 640.589 1087.94 634.274C1084.27 631.043 1080.31 628.302 1076.24 625.659C1072.33 623.26 1067.33 620.715 1062.63 618.218C1043.79 608.232 1024.6 598.54 1005.41 588.896C967.033 569.61 928.264 550.959 889.592 532.162L656.978 419.967V420.016Z" fill="white"/>
<path d="M897.376 1080.31C888.908 1065.38 882.593 1050.94 876.768 1035.77C870.992 1020.69 866.292 1005.27 862.572 989.705C860.516 981.971 859.244 974.041 857.677 966.209C856.6 958.279 855.132 950.447 854.593 942.468C852.782 926.657 852.978 910.699 853.565 894.985C854.936 910.699 856.649 926.314 860.369 941.538C861.838 949.223 864.236 956.664 866.194 964.202C868.691 971.594 870.845 979.034 873.733 986.279C879.167 1000.82 885.481 1014.96 892.726 1028.57C899.873 1042.08 908.048 1055.64 916.663 1067.24L916.908 1067.59C920.775 1072.78 919.698 1080.07 914.509 1083.94C909.32 1087.8 902.027 1086.73 898.208 1081.54C897.915 1081.15 897.621 1080.71 897.425 1080.31" fill="white"/>
<path d="M555.648 289.761C555.648 289.761 407.571 247.713 273.25 276.006" stroke="white" stroke-width="118.275" stroke-miterlimit="10"/>
<path d="M451.578 932.481C473.704 937.034 495.536 940.411 517.466 942.663C539.347 944.866 561.228 945.943 583.012 945.306C588.445 945.306 593.928 945.257 599.361 944.719L615.711 943.74C626.529 942.467 637.445 941.586 648.214 939.628C670.046 936.691 691.193 930.768 713.319 925.579C694.13 937.376 673.228 947.264 651.102 952.894C640.186 956.516 628.83 957.838 617.571 960.139C606.214 961.362 594.809 962.831 583.354 962.733C571.9 963.027 560.494 962.341 549.089 961.46L532.103 959.257C526.473 958.376 520.893 957.201 515.312 956.076C493.089 951.18 471.257 943.838 451.627 932.53" fill="white"/>
<path d="M205.6 1193.49C213.481 1084.23 221.117 974.927 227.578 865.619C229.194 838.305 230.613 810.99 231.788 783.626C232.963 756.263 234.089 728.85 235.949 701.438C237.858 674.074 240.208 646.613 245.592 619.543C248.383 606.082 251.907 592.62 257.732 580.089C263.459 567.655 272.075 555.858 284.362 549.445C272.369 556.396 264.438 568.291 259.299 580.774C254.061 593.354 251.124 606.718 248.921 620.13C244.711 647.053 243.487 674.417 242.704 701.683C241.383 756.312 242.362 811.186 241.48 866.011C240.061 975.661 237.467 1085.21 234.627 1194.86C234.432 1202.89 227.725 1209.25 219.697 1209.01C211.669 1208.81 205.306 1202.11 205.551 1194.08C205.551 1193.88 205.551 1193.69 205.551 1193.44V1193.35L205.6 1193.49Z" fill="white"/>
</g>
<path d="M754 1389.73C1105.1 1389.73 1389.73 1105.1 1389.73 754C1389.73 402.898 1105.1 118.274 754 118.274C402.898 118.274 118.274 402.898 118.274 754C118.274 1105.1 402.898 1389.73 754 1389.73Z" stroke="#76B82A" stroke-width="177.412" stroke-miterlimit="10"/>
<defs>
<clipPath id="clip0_39_765">
<rect x="169.326" y="169.384" width="1169.24" height="1169.24" rx="584.621" fill="white"/>
</clipPath>
</defs>
</svg>
