<svg width="191" height="51" viewBox="0 0 191 51" fill="none" xmlns="http://www.w3.org/2000/svg">
<g clip-path="url(#clip0_19_2887)">
<path d="M45.2699 25.5002C45.2699 36.4199 36.4179 45.2718 25.4982 45.2718C14.5785 45.2718 5.72656 36.4199 5.72656 25.5002C5.72656 14.5805 14.5785 5.72852 25.4982 5.72852C36.4179 5.72852 45.2699 14.5805 45.2699 25.5002Z" fill="#76B82A"/>
<path d="M11.6435 16.1631C12.6169 15.5224 13.539 14.8138 14.4165 14.0622C15.2856 13.304 16.1133 12.5011 16.8302 11.6171C17.1911 11.1784 17.5238 10.7181 17.8152 10.2397L17.8698 10.1503L17.9394 10.041C17.9956 9.95826 18.0602 9.88045 18.1347 9.81092C18.2821 9.6702 18.4608 9.56094 18.6529 9.49472C19.0403 9.36228 19.4823 9.40366 19.8432 9.61722C20.022 9.72483 20.1793 9.87052 20.2935 10.041L20.5402 10.4201L21.012 11.1618C21.3249 11.6568 21.6278 12.1601 21.9159 12.6749C22.0599 12.9315 22.2023 13.1898 22.3413 13.453L22.3927 13.5524L22.4192 13.602L22.4324 13.6269L22.4523 13.6682C22.5052 13.7758 22.5383 13.905 22.5532 14.0275C22.5797 14.2791 22.5234 14.4943 22.4705 14.6599C22.4142 14.8271 22.3562 14.9628 22.3149 15.0804L22.2503 15.2757C22.2271 15.3486 22.2023 15.4214 22.1758 15.4926C22.0765 15.7807 21.9606 16.0621 21.8331 16.3369C21.3265 17.4362 20.6825 18.4559 19.9409 19.3963C19.1893 20.3283 18.3466 21.1826 17.4228 21.9358C16.4925 22.6808 15.4975 23.3413 14.4413 23.8761L14.4247 23.8843C14.2757 23.9605 14.0936 23.8992 14.0175 23.7502C13.9943 23.7055 13.9844 23.6542 13.9844 23.6079C13.996 23.0897 13.9662 22.5467 13.9066 22.0186C13.847 21.4888 13.7576 20.9624 13.6069 20.4541C13.453 19.9492 13.2493 19.4526 12.9182 19.0437C12.751 18.8417 12.5524 18.6662 12.3206 18.5371C12.0888 18.4079 11.8223 18.3384 11.5508 18.3185C11.8223 18.302 12.1037 18.3384 12.3653 18.4411C12.6269 18.542 12.8653 18.7076 13.0656 18.9062C13.4679 19.3069 13.746 19.8135 13.9496 20.3333C14.1532 20.8548 14.2989 21.3961 14.4032 21.9424C14.5042 22.4921 14.5721 23.0367 14.6002 23.6062L14.1433 23.338C15.1184 22.7404 16.0488 22.0732 16.8931 21.31C17.744 20.5584 18.5221 19.7241 19.2009 18.8202C19.8879 17.9245 20.4855 16.9561 20.9408 15.9346C21.0534 15.6797 21.1593 15.4214 21.2537 15.1615C21.2785 15.0969 21.3 15.0324 21.3216 14.9662L21.3977 14.7476C21.4557 14.592 21.5136 14.4596 21.55 14.352C21.5881 14.2427 21.598 14.1665 21.5931 14.1285C21.5897 14.1086 21.5897 14.092 21.5765 14.0689L21.5732 14.0606L21.5616 14.0374L21.5368 13.9894L21.4888 13.8934C21.358 13.6401 21.2222 13.3868 21.0848 13.1352C20.8067 12.6335 20.5186 12.1319 20.2306 11.632L19.7902 10.8853L19.5717 10.5244C19.527 10.4516 19.4674 10.3937 19.3979 10.3473C19.2605 10.2562 19.0734 10.2298 18.9062 10.2778C18.8217 10.3009 18.7439 10.3423 18.6777 10.3986C18.6446 10.4268 18.6132 10.4599 18.585 10.4963L18.5337 10.5691L18.4691 10.6618C18.1281 11.1585 17.749 11.6253 17.3467 12.0641C16.9428 12.5028 16.5074 12.9067 16.062 13.2941C15.615 13.6815 15.1515 14.044 14.6697 14.3818C14.1913 14.7228 13.6996 15.044 13.1947 15.3403C12.6914 15.6399 12.1749 15.9148 11.6451 16.1598" fill="white"/>
<path d="M22.2188 14.2048C24.9222 15.2875 27.6058 16.4198 30.281 17.5754C31.617 18.1548 32.9481 18.7491 34.2741 19.355C34.938 19.6597 35.6002 19.9643 36.2558 20.2937C36.4213 20.3765 36.5786 20.451 36.7607 20.5536C36.9328 20.6563 37.1001 20.7672 37.254 20.893C37.5669 21.1413 37.8368 21.4294 38.0751 21.7357C38.5519 22.3498 38.9029 23.0303 39.1959 23.7206C39.4856 24.4143 39.7157 25.1212 39.9177 25.833C40.3184 27.2568 40.618 28.6921 40.9027 30.1224C41.1809 31.5528 41.4474 32.9815 41.7619 34.3887C41.9192 35.0922 42.0914 35.7909 42.2851 36.4812C42.4755 37.1716 42.6907 37.852 42.9423 38.5125L42.9473 38.5241C43.0036 38.6731 42.9771 38.8353 42.8927 38.9578C42.7983 39.0936 42.7188 39.1896 42.6294 39.2989C42.5417 39.4032 42.4506 39.5042 42.3596 39.6035C42.1758 39.8005 41.9821 39.9876 41.7835 40.168C41.3828 40.5239 40.9574 40.8484 40.5071 41.1365C39.6098 41.7159 38.6115 42.1331 37.5835 42.398C36.5537 42.6579 35.4893 42.7721 34.438 42.7324C33.3851 42.6943 32.3471 42.5271 31.3406 42.2639H31.3323C31.1833 42.2225 31.0823 42.0934 31.0707 41.946C30.9879 40.7375 30.8936 39.5224 30.7777 38.3122C30.6602 37.102 30.5277 35.8935 30.3704 34.6866C30.1916 33.4665 30.185 32.2183 30.3274 30.9998C30.3953 30.389 30.4929 29.7831 30.6304 29.1871C30.7661 28.5911 30.9267 28.0001 31.132 27.4256C30.9648 28.0117 30.8439 28.6093 30.7479 29.2102C30.6552 29.8112 30.584 30.4138 30.5525 31.0197C30.5178 31.624 30.5128 32.2299 30.5525 32.8308C30.5625 33.1321 30.6022 33.4318 30.6304 33.7298C30.6734 34.0278 30.7164 34.3208 30.7727 34.6221C30.9979 35.824 31.1849 37.0341 31.3488 38.2443C31.5127 39.4561 31.665 40.668 31.7776 41.8897L31.5078 41.5735C32.4796 41.7904 33.4679 41.9113 34.4529 41.9113C35.4363 41.9195 36.4147 41.797 37.3533 41.5355C38.292 41.2755 39.181 40.8633 39.9939 40.3385C40.3995 40.0753 40.7835 39.779 41.1411 39.4545C41.3183 39.2906 41.4904 39.1217 41.6527 38.9463C41.7338 38.8585 41.8116 38.7691 41.8861 38.6781C41.959 38.5903 42.0384 38.4877 42.0881 38.4148L42.0384 38.8602C41.4954 37.4646 41.1262 36.0309 40.815 34.5973C40.5021 33.1619 40.2455 31.7266 39.9757 30.2979C39.7091 28.8709 39.4459 27.4471 39.08 26.0615C38.8979 25.3695 38.6877 24.6874 38.4311 24.0302C38.1761 23.3746 37.8699 22.7405 37.4692 22.1909C37.2706 21.9161 37.0454 21.6645 36.7938 21.4509C36.6696 21.3416 36.5355 21.2489 36.3981 21.1595C36.2657 21.0784 36.0968 20.9923 35.9379 20.9079C35.3005 20.5702 34.6516 20.2424 34.0026 19.9163C32.7047 19.264 31.3935 18.6332 30.0857 17.9975L22.2188 14.2031V14.2048Z" fill="white"/>
<path d="M30.3487 36.5358C30.0623 36.0309 29.8487 35.5425 29.6517 35.0293C29.4564 34.5194 29.2974 33.9979 29.1716 33.4715C29.1021 33.2099 29.0591 32.9417 29.0061 32.6768C28.9697 32.4086 28.92 32.1438 28.9018 31.8739C28.8405 31.3392 28.8472 30.7995 28.867 30.2681C28.9134 30.7995 28.9713 31.3276 29.0971 31.8425C29.1468 32.1024 29.2279 32.354 29.2941 32.6089C29.3786 32.8589 29.4514 33.1106 29.5491 33.3556C29.7328 33.8473 29.9464 34.3257 30.1914 34.7859C30.4331 35.2428 30.7096 35.7014 31.001 36.0938L31.0092 36.1054C31.14 36.2808 31.1036 36.5275 30.9281 36.6583C30.7526 36.7891 30.506 36.7527 30.3768 36.5772C30.3669 36.5639 30.357 36.549 30.3503 36.5358" fill="white"/>
<path d="M18.7918 9.79962C18.7918 9.79962 13.7839 8.37755 9.24121 9.33443" stroke="white" stroke-width="4" stroke-miterlimit="10"/>
<path d="M15.272 31.5362C16.0203 31.6901 16.7586 31.8044 17.5003 31.8805C18.2403 31.955 18.9803 31.9914 19.717 31.9699C19.9008 31.9699 20.0862 31.9682 20.2699 31.95L20.8229 31.9169C21.1887 31.8739 21.5579 31.8441 21.9221 31.7779C22.6605 31.6785 23.3757 31.4782 24.1239 31.3027C23.475 31.7017 22.7681 32.0361 22.0198 32.2265C21.6506 32.349 21.2665 32.3937 20.8858 32.4715C20.5017 32.5129 20.116 32.5626 19.7286 32.5593C19.3412 32.5692 18.9555 32.546 18.5697 32.5162L17.9953 32.4417C17.8049 32.4119 17.6162 32.3722 17.4274 32.3341C16.6758 32.1686 15.9375 31.9202 15.2736 31.5378" fill="white"/>
<path d="M6.95306 40.3635C7.2196 36.6684 7.47785 32.9717 7.69638 29.2749C7.75101 28.3511 7.79902 27.4274 7.83875 26.502C7.87848 25.5765 7.91656 24.6494 7.97947 23.7224C8.04404 22.7969 8.1235 21.8682 8.3056 20.9527C8.39997 20.4974 8.51916 20.0422 8.71617 19.6184C8.90986 19.1979 9.20123 18.7989 9.61676 18.582C9.21116 18.8171 8.94297 19.2194 8.76914 19.6416C8.592 20.067 8.49268 20.519 8.41818 20.9726C8.2758 21.8831 8.23442 22.8085 8.20793 23.7306C8.16323 25.5782 8.19634 27.434 8.16654 29.2882C8.11853 32.9965 8.03079 36.7015 7.93477 40.4098C7.92815 40.6813 7.70135 40.8965 7.42984 40.8883C7.15834 40.8816 6.94313 40.6548 6.9514 40.3833C6.9514 40.3767 6.9514 40.3701 6.9514 40.3618V40.3585L6.95306 40.3635Z" fill="white"/>
</g>
<path d="M25.5 47C37.3741 47 47 37.3741 47 25.5C47 13.6259 37.3741 4 25.5 4C13.6259 4 4 13.6259 4 25.5C4 37.3741 13.6259 47 25.5 47Z" stroke="#76B82A" stroke-width="6" stroke-miterlimit="10"/>
<path d="M67.1862 13.1826H68.6172V21.007C68.6172 21.8149 68.4267 22.5361 68.0459 23.1708C67.6689 23.8017 67.1361 24.2999 66.4476 24.6653C65.759 25.0269 64.9512 25.2077 64.0241 25.2077C63.097 25.2077 62.2892 25.0269 61.6006 24.6653C60.912 24.2999 60.3773 23.8017 59.9965 23.1708C59.6195 22.5361 59.431 21.8149 59.431 21.007V13.1826H60.862V20.8916C60.862 21.4686 60.989 21.9822 61.2428 22.4323C61.4967 22.8785 61.8583 23.2305 62.3276 23.4882C62.8008 23.7421 63.3663 23.869 64.0241 23.869C64.6819 23.869 65.2474 23.7421 65.7205 23.4882C66.1937 23.2305 66.5553 22.8785 66.8053 22.4323C67.0592 21.9822 67.1862 21.4686 67.1862 20.8916V13.1826ZM80.8456 13.1826V25H79.4608L73.0213 15.7215H72.9059V25H71.4748V13.1826H72.8597L79.3223 22.4842H79.4377V13.1826H80.8456ZM85.1401 13.1826V25H83.7091V13.1826H85.1401ZM91.6561 25H88.0093V13.1826H91.8177C92.964 13.1826 93.9449 13.4192 94.7605 13.8924C95.576 14.3617 96.2011 15.0368 96.6358 15.9177C97.0705 16.7948 97.2878 17.845 97.2878 19.0682C97.2878 20.2992 97.0685 21.359 96.63 22.2476C96.1915 23.1324 95.5529 23.8133 94.7143 24.2903C93.8757 24.7634 92.8563 25 91.6561 25ZM89.4403 23.7306H91.5638C92.5409 23.7306 93.3506 23.5421 93.993 23.1651C94.6354 22.7881 95.1144 22.2515 95.4298 21.5552C95.7452 20.8589 95.903 20.0299 95.903 19.0682C95.903 18.1142 95.7472 17.2929 95.4356 16.6044C95.124 15.9119 94.6585 15.3811 94.0392 15.0118C93.4199 14.6387 92.6486 14.4521 91.7253 14.4521H89.4403V23.7306ZM109.659 19.0913C109.659 20.3377 109.434 21.4148 108.984 22.3226C108.534 23.2305 107.917 23.9306 107.132 24.423C106.347 24.9154 105.451 25.1616 104.443 25.1616C103.435 25.1616 102.539 24.9154 101.754 24.423C100.969 23.9306 100.352 23.2305 99.9017 22.3226C99.4516 21.4148 99.2266 20.3377 99.2266 19.0913C99.2266 17.845 99.4516 16.7679 99.9017 15.86C100.352 14.9522 100.969 14.2521 101.754 13.7597C102.539 13.2673 103.435 13.0211 104.443 13.0211C105.451 13.0211 106.347 13.2673 107.132 13.7597C107.917 14.2521 108.534 14.9522 108.984 15.86C109.434 16.7679 109.659 17.845 109.659 19.0913ZM108.274 19.0913C108.274 18.0681 108.103 17.2045 107.761 16.5005C107.422 15.7965 106.963 15.2638 106.382 14.9022C105.805 14.5406 105.158 14.3598 104.443 14.3598C103.727 14.3598 103.079 14.5406 102.498 14.9022C101.921 15.2638 101.462 15.7965 101.119 16.5005C100.781 17.2045 100.611 18.0681 100.611 19.0913C100.611 20.1146 100.781 20.9782 101.119 21.6821C101.462 22.3861 101.921 22.9189 102.498 23.2805C103.079 23.6421 103.727 23.8229 104.443 23.8229C105.158 23.8229 105.805 23.6421 106.382 23.2805C106.963 22.9189 107.422 22.3861 107.761 21.6821C108.103 20.9782 108.274 20.1146 108.274 19.0913ZM110.927 14.4521V13.1826H119.79V14.4521H116.074V25H114.643V14.4521H110.927ZM121.103 25H119.603L123.942 13.1826H125.419L129.758 25H128.258L124.727 15.0522H124.634L121.103 25ZM121.657 20.3838H127.704V21.6533H121.657V20.3838ZM140.553 16.8756H139.122C139.037 16.464 138.889 16.1024 138.677 15.7908C138.47 15.4792 138.216 15.2176 137.916 15.006C137.62 14.7906 137.291 14.629 136.929 14.5213C136.567 14.4136 136.19 14.3598 135.798 14.3598C135.083 14.3598 134.434 14.5406 133.854 14.9022C133.277 15.2638 132.817 15.7965 132.474 16.5005C132.136 17.2045 131.967 18.0681 131.967 19.0913C131.967 20.1146 132.136 20.9782 132.474 21.6821C132.817 22.3861 133.277 22.9189 133.854 23.2805C134.434 23.6421 135.083 23.8229 135.798 23.8229C136.19 23.8229 136.567 23.769 136.929 23.6613C137.291 23.5536 137.62 23.394 137.916 23.1824C138.216 22.967 138.47 22.7035 138.677 22.3919C138.889 22.0764 139.037 21.7148 139.122 21.3071H140.553C140.445 21.911 140.249 22.4515 139.964 22.9285C139.68 23.4055 139.326 23.8113 138.902 24.146C138.479 24.4768 138.004 24.7288 137.477 24.9019C136.954 25.075 136.394 25.1616 135.798 25.1616C134.79 25.1616 133.894 24.9154 133.109 24.423C132.324 23.9306 131.707 23.2305 131.257 22.3226C130.807 21.4148 130.582 20.3377 130.582 19.0913C130.582 17.845 130.807 16.7679 131.257 15.86C131.707 14.9522 132.324 14.2521 133.109 13.7597C133.894 13.2673 134.79 13.0211 135.798 13.0211C136.394 13.0211 136.954 13.1076 137.477 13.2807C138.004 13.4538 138.479 13.7077 138.902 14.0424C139.326 14.3732 139.68 14.7771 139.964 15.2541C140.249 15.7273 140.445 16.2678 140.553 16.8756ZM144.296 13.1826V25H142.865V13.1826H144.296ZM157.136 19.0913C157.136 20.3377 156.911 21.4148 156.461 22.3226C156.011 23.2305 155.394 23.9306 154.609 24.423C153.824 24.9154 152.928 25.1616 151.92 25.1616C150.912 25.1616 150.016 24.9154 149.231 24.423C148.446 23.9306 147.829 23.2305 147.379 22.3226C146.929 21.4148 146.704 20.3377 146.704 19.0913C146.704 17.845 146.929 16.7679 147.379 15.86C147.829 14.9522 148.446 14.2521 149.231 13.7597C150.016 13.2673 150.912 13.0211 151.92 13.0211C152.928 13.0211 153.824 13.2673 154.609 13.7597C155.394 14.2521 156.011 14.9522 156.461 15.86C156.911 16.7679 157.136 17.845 157.136 19.0913ZM155.751 19.0913C155.751 18.0681 155.58 17.2045 155.238 16.5005C154.899 15.7965 154.44 15.2638 153.859 14.9022C153.282 14.5406 152.636 14.3598 151.92 14.3598C151.205 14.3598 150.556 14.5406 149.975 14.9022C149.398 15.2638 148.939 15.7965 148.596 16.5005C148.258 17.2045 148.089 18.0681 148.089 19.0913C148.089 20.1146 148.258 20.9782 148.596 21.6821C148.939 22.3861 149.398 22.9189 149.975 23.2805C150.556 23.6421 151.205 23.8229 151.92 23.8229C152.636 23.8229 153.282 23.6421 153.859 23.2805C154.44 22.9189 154.899 22.3861 155.238 21.6821C155.58 20.9782 155.751 20.1146 155.751 19.0913ZM168.913 13.1826V25H167.528L161.089 15.7215H160.973V25H159.542V13.1826H160.927L167.39 22.4842H167.505V13.1826H168.913ZM171.777 25V13.1826H178.909V14.4521H173.208V18.4451H178.539V19.7145H173.208V23.7306H179.001V25H171.777ZM187.951 16.137C187.881 15.5523 187.6 15.0983 187.108 14.7752C186.616 14.4521 186.012 14.2905 185.296 14.2905C184.773 14.2905 184.315 14.3751 183.923 14.5444C183.534 14.7137 183.231 14.9464 183.011 15.2426C182.796 15.5388 182.688 15.8754 182.688 16.2524C182.688 16.5678 182.763 16.839 182.913 17.066C183.067 17.2891 183.263 17.4757 183.502 17.6257C183.74 17.7719 183.99 17.893 184.252 17.9892C184.513 18.0815 184.754 18.1565 184.973 18.2143L186.173 18.5374C186.481 18.6182 186.823 18.7297 187.2 18.8721C187.581 19.0144 187.945 19.2086 188.291 19.4548C188.641 19.6972 188.93 20.0088 189.157 20.3896C189.383 20.7704 189.497 21.2378 189.497 21.7918C189.497 22.4303 189.33 23.0074 188.995 23.5228C188.664 24.0383 188.179 24.448 187.541 24.7519C186.906 25.0558 186.135 25.2077 185.227 25.2077C184.381 25.2077 183.648 25.0712 183.029 24.798C182.413 24.5249 181.928 24.1441 181.574 23.6555C181.224 23.167 181.026 22.5996 180.98 21.9533H182.457C182.496 22.3996 182.646 22.7689 182.907 23.0612C183.173 23.3497 183.508 23.5651 183.911 23.7075C184.319 23.846 184.758 23.9152 185.227 23.9152C185.773 23.9152 186.264 23.8267 186.698 23.6498C187.133 23.469 187.477 23.2189 187.731 22.8996C187.985 22.5765 188.112 22.1995 188.112 21.7687C188.112 21.3763 188.002 21.057 187.783 20.8108C187.564 20.5646 187.275 20.3646 186.918 20.2107C186.56 20.0569 186.173 19.9222 185.758 19.8068L184.304 19.3914C183.381 19.1259 182.65 18.747 182.111 18.2546C181.573 17.7623 181.303 17.1179 181.303 16.3216C181.303 15.66 181.482 15.083 181.84 14.5906C182.202 14.0943 182.686 13.7097 183.294 13.4365C183.906 13.1596 184.588 13.0211 185.342 13.0211C186.104 13.0211 186.781 13.1576 187.374 13.4308C187.966 13.7 188.435 14.0693 188.781 14.5386C189.132 15.0079 189.316 15.5407 189.335 16.137H187.951Z" fill="#706F6F"/>
<path d="M61.5187 39.8599H58.9916V31.6709H61.6307C62.425 31.6709 63.1048 31.8348 63.6699 32.1627C64.235 32.4879 64.6682 32.9557 64.9694 33.5662C65.2707 34.174 65.4213 34.9017 65.4213 35.7494C65.4213 36.6024 65.2693 37.3368 64.9654 37.9526C64.6616 38.5657 64.219 39.0375 63.6379 39.368C63.0568 39.6959 62.3504 39.8599 61.5187 39.8599ZM59.9833 38.9802H61.4547C62.1318 38.9802 62.6929 38.8496 63.1381 38.5883C63.5833 38.3271 63.9152 37.9552 64.1337 37.4727C64.3523 36.9903 64.4616 36.4158 64.4616 35.7494C64.4616 35.0883 64.3537 34.5192 64.1377 34.042C63.9218 33.5622 63.5993 33.1943 63.1701 32.9384C62.7409 32.6798 62.2065 32.5505 61.5667 32.5505H59.9833V38.9802ZM67.0847 39.8599V31.6709H72.0268V32.5505H68.0763V35.3175H71.7709V36.1972H68.0763V38.9802H72.0908V39.8599H67.0847ZM73.8142 39.8599V31.6709H74.8058V38.9802H78.6124V39.8599H73.8142ZM86.4186 34.2299H85.4269C85.3683 33.9447 85.2657 33.6941 85.119 33.4782C84.9751 33.2623 84.7992 33.081 84.5912 32.9344C84.386 32.7851 84.1581 32.6732 83.9075 32.5985C83.6569 32.5239 83.3957 32.4866 83.1238 32.4866C82.628 32.4866 82.1788 32.6119 81.7763 32.8624C81.3764 33.113 81.0579 33.4822 80.8206 33.97C80.586 34.4578 80.4687 35.0563 80.4687 35.7654C80.4687 36.4744 80.586 37.0729 80.8206 37.5607C81.0579 38.0485 81.3764 38.4177 81.7763 38.6683C82.1788 38.9189 82.628 39.0442 83.1238 39.0442C83.3957 39.0442 83.6569 39.0068 83.9075 38.9322C84.1581 38.8576 84.386 38.7469 84.5912 38.6003C84.7992 38.451 84.9751 38.2684 85.119 38.0525C85.2657 37.8339 85.3683 37.5834 85.4269 37.3008H86.4186C86.3439 37.7193 86.208 38.0938 86.0107 38.4244C85.8134 38.7549 85.5682 39.0362 85.275 39.2681C84.9818 39.4973 84.6525 39.6719 84.2873 39.7919C83.9248 39.9118 83.537 39.9718 83.1238 39.9718C82.4254 39.9718 81.8043 39.8012 81.2605 39.46C80.7167 39.1188 80.2888 38.6336 79.9769 38.0045C79.665 37.3754 79.5091 36.6291 79.5091 35.7654C79.5091 34.9017 79.665 34.1553 79.9769 33.5262C80.2888 32.8971 80.7167 32.4119 81.2605 32.0707C81.8043 31.7295 82.4254 31.5589 83.1238 31.5589C83.537 31.5589 83.9248 31.6189 84.2873 31.7388C84.6525 31.8588 84.9818 32.0347 85.275 32.2667C85.5682 32.4959 85.8134 32.7758 86.0107 33.1063C86.208 33.4342 86.3439 33.8088 86.4186 34.2299ZM88.3568 39.8599H87.3172L90.3241 31.6709H91.3478L94.3546 39.8599H93.315L90.8679 32.9664H90.804L88.3568 39.8599ZM88.7407 36.661H92.9312V37.5407H88.7407V36.661ZM95.6302 39.8599V31.6709H98.3972C99.0369 31.6709 99.5621 31.7802 99.9726 31.9988C100.383 32.2147 100.687 32.5119 100.884 32.8904C101.082 33.269 101.18 33.6995 101.18 34.1819C101.18 34.6644 101.082 35.0923 100.884 35.4655C100.687 35.8387 100.384 36.1319 99.9766 36.3452C99.5687 36.5557 99.0476 36.661 98.4132 36.661H96.174V35.7654H98.3812C98.8183 35.7654 99.1702 35.7014 99.4368 35.5734C99.706 35.4455 99.9006 35.2642 100.021 35.0296C100.143 34.7924 100.204 34.5098 100.204 34.1819C100.204 33.8541 100.143 33.5675 100.021 33.3223C99.8979 33.077 99.702 32.8878 99.4328 32.7545C99.1635 32.6185 98.8077 32.5505 98.3652 32.5505H96.6218V39.8599H95.6302ZM99.4848 36.1812L101.5 39.8599H100.348L98.3652 36.1812H99.4848ZM103.824 31.6709V39.8599H102.833V31.6709H103.824ZM105.812 39.8599V31.6709H108.675C109.246 31.6709 109.716 31.7695 110.087 31.9668C110.457 32.1614 110.733 32.4239 110.915 32.7545C111.096 33.0824 111.186 33.4462 111.186 33.8461C111.186 34.1979 111.124 34.4885 110.999 34.7178C110.876 34.947 110.713 35.1283 110.511 35.2616C110.311 35.3948 110.094 35.4935 109.859 35.5574V35.6374C110.11 35.6534 110.361 35.7414 110.615 35.9013C110.868 36.0613 111.08 36.2905 111.25 36.5891C111.421 36.8876 111.506 37.2528 111.506 37.6847C111.506 38.0952 111.413 38.4644 111.226 38.7923C111.04 39.1201 110.745 39.38 110.343 39.572C109.94 39.7639 109.416 39.8599 108.771 39.8599H105.812ZM106.804 38.9802H108.771C109.419 38.9802 109.879 38.8549 110.151 38.6043C110.425 38.3511 110.563 38.0445 110.563 37.6847C110.563 37.4074 110.492 37.1515 110.351 36.9169C110.209 36.6797 110.008 36.4904 109.747 36.3492C109.486 36.2052 109.177 36.1332 108.819 36.1332H106.804V38.9802ZM106.804 35.2695H108.643C108.942 35.2695 109.211 35.2109 109.451 35.0936C109.694 34.9763 109.886 34.8111 110.027 34.5978C110.171 34.3845 110.243 34.134 110.243 33.8461C110.243 33.4862 110.118 33.181 109.867 32.9304C109.616 32.6772 109.219 32.5505 108.675 32.5505H106.804V35.2695ZM113.136 39.8599V31.6709H118.078V32.5505H114.127V35.3175H117.822V36.1972H114.127V38.9802H118.142V39.8599H113.136ZM127.51 33.7181C127.462 33.3129 127.268 32.9984 126.927 32.7745C126.585 32.5505 126.167 32.4386 125.671 32.4386C125.309 32.4386 124.991 32.4972 124.719 32.6145C124.45 32.7318 124.24 32.8931 124.088 33.0983C123.938 33.3036 123.864 33.5369 123.864 33.7981C123.864 34.0167 123.916 34.2046 124.02 34.3619C124.126 34.5165 124.262 34.6458 124.428 34.7497C124.593 34.851 124.766 34.935 124.947 35.0016C125.129 35.0656 125.295 35.1176 125.447 35.1576L126.279 35.3815C126.492 35.4375 126.729 35.5148 126.991 35.6134C127.255 35.7121 127.506 35.8467 127.746 36.0173C127.989 36.1852 128.189 36.4011 128.346 36.665C128.503 36.9289 128.582 37.2528 128.582 37.6367C128.582 38.0792 128.466 38.479 128.234 38.8362C128.005 39.1934 127.669 39.4773 127.227 39.6879C126.787 39.8985 126.252 40.0038 125.623 40.0038C125.037 40.0038 124.529 39.9092 124.1 39.7199C123.673 39.5307 123.337 39.2667 123.092 38.9282C122.85 38.5897 122.712 38.1965 122.68 37.7486H123.704C123.731 38.0579 123.834 38.3138 124.016 38.5164C124.2 38.7163 124.432 38.8656 124.711 38.9642C124.994 39.0602 125.298 39.1081 125.623 39.1081C126.002 39.1081 126.342 39.0468 126.643 38.9242C126.944 38.7989 127.183 38.6256 127.359 38.4044C127.534 38.1805 127.622 37.9192 127.622 37.6207C127.622 37.3488 127.546 37.1275 127.395 36.9569C127.243 36.7863 127.043 36.6477 126.795 36.5411C126.547 36.4345 126.279 36.3412 125.991 36.2612L124.983 35.9733C124.344 35.7894 123.837 35.5268 123.464 35.1856C123.091 34.8444 122.904 34.3979 122.904 33.8461C122.904 33.3876 123.028 32.9877 123.276 32.6465C123.527 32.3026 123.862 32.0361 124.284 31.8468C124.707 31.6549 125.181 31.5589 125.703 31.5589C126.231 31.5589 126.7 31.6535 127.111 31.8428C127.521 32.0294 127.846 32.2853 128.086 32.6105C128.329 32.9357 128.457 33.3049 128.47 33.7181H127.51ZM130.772 39.9238C130.575 39.9238 130.406 39.8532 130.264 39.7119C130.123 39.5706 130.053 39.4014 130.053 39.2041C130.053 39.0068 130.123 38.8376 130.264 38.6963C130.406 38.555 130.575 38.4844 130.772 38.4844C130.97 38.4844 131.139 38.555 131.28 38.6963C131.421 38.8376 131.492 39.0068 131.492 39.2041C131.492 39.3347 131.459 39.4547 131.392 39.564C131.328 39.6733 131.241 39.7612 131.132 39.8279C131.026 39.8919 130.906 39.9238 130.772 39.9238ZM133.649 39.8599H132.61L135.616 31.6709H136.64L139.647 39.8599H138.607L136.16 32.9664H136.096L133.649 39.8599ZM134.033 36.661H138.224V37.5407H134.033V36.661ZM141.482 39.9238C141.285 39.9238 141.116 39.8532 140.975 39.7119C140.833 39.5706 140.763 39.4014 140.763 39.2041C140.763 39.0068 140.833 38.8376 140.975 38.6963C141.116 38.555 141.285 38.4844 141.482 38.4844C141.68 38.4844 141.849 38.555 141.99 38.6963C142.131 38.8376 142.202 39.0068 142.202 39.2041C142.202 39.3347 142.169 39.4547 142.102 39.564C142.038 39.6733 141.951 39.7612 141.842 39.8279C141.736 39.8919 141.616 39.9238 141.482 39.9238ZM148.502 33.7181C148.454 33.3129 148.259 32.9984 147.918 32.7745C147.577 32.5505 147.158 32.4386 146.662 32.4386C146.3 32.4386 145.983 32.4972 145.711 32.6145C145.442 32.7318 145.231 32.8931 145.079 33.0983C144.93 33.3036 144.855 33.5369 144.855 33.7981C144.855 34.0167 144.907 34.2046 145.011 34.3619C145.118 34.5165 145.254 34.6458 145.419 34.7497C145.584 34.851 145.757 34.935 145.939 35.0016C146.12 35.0656 146.287 35.1176 146.439 35.1576L147.27 35.3815C147.483 35.4375 147.721 35.5148 147.982 35.6134C148.246 35.7121 148.498 35.8467 148.738 36.0173C148.98 36.1852 149.18 36.4011 149.337 36.665C149.495 36.9289 149.573 37.2528 149.573 37.6367C149.573 38.0792 149.457 38.479 149.225 38.8362C148.996 39.1934 148.66 39.4773 148.218 39.6879C147.778 39.8985 147.244 40.0038 146.614 40.0038C146.028 40.0038 145.52 39.9092 145.091 39.7199C144.664 39.5307 144.329 39.2667 144.083 38.9282C143.841 38.5897 143.704 38.1965 143.672 37.7486H144.695C144.722 38.0579 144.826 38.3138 145.007 38.5164C145.191 38.7163 145.423 38.8656 145.703 38.9642C145.985 39.0602 146.289 39.1081 146.614 39.1081C146.993 39.1081 147.333 39.0468 147.634 38.9242C147.935 38.7989 148.174 38.6256 148.35 38.4044C148.526 38.1805 148.614 37.9192 148.614 37.6207C148.614 37.3488 148.538 37.1275 148.386 36.9569C148.234 36.7863 148.034 36.6477 147.786 36.5411C147.538 36.4345 147.27 36.3412 146.982 36.2612L145.975 35.9733C145.335 35.7894 144.828 35.5268 144.455 35.1856C144.082 34.8444 143.895 34.3979 143.895 33.8461C143.895 33.3876 144.019 32.9877 144.267 32.6465C144.518 32.3026 144.854 32.0361 145.275 31.8468C145.699 31.6549 146.172 31.5589 146.694 31.5589C147.222 31.5589 147.691 31.6535 148.102 31.8428C148.512 32.0294 148.838 32.2853 149.078 32.6105C149.32 32.9357 149.448 33.3049 149.461 33.7181H148.502ZM151.764 39.9238C151.566 39.9238 151.397 39.8532 151.256 39.7119C151.114 39.5706 151.044 39.4014 151.044 39.2041C151.044 39.0068 151.114 38.8376 151.256 38.6963C151.397 38.555 151.566 38.4844 151.764 38.4844C151.961 38.4844 152.13 38.555 152.271 38.6963C152.413 38.8376 152.483 39.0068 152.483 39.2041C152.483 39.3347 152.45 39.4547 152.383 39.564C152.319 39.6733 152.233 39.7612 152.123 39.8279C152.017 39.8919 151.897 39.9238 151.764 39.9238Z" fill="#76B82A"/>
<defs>
<clipPath id="clip0_19_2887">
<rect x="5.72656" y="5.72852" width="39.5433" height="39.5433" rx="19.7717" fill="white"/>
</clipPath>
</defs>
</svg>
